  0
SECTION
  2
HEADER
  9
$ACADVER
  1
AC1009
  0
ENDSEC
  0
SECTION
  2
TABLES
  0
TABLE
  2
LAYER
 70
16
  0
LAYER
  2
A-WALL-EXT
 70
0
 62
7
  6
CONTINUOUS
  0
LAYER
  2
A-WALL-INT
 70
0
 62
8
  6
CONTINUOUS
  0
LAYER
  2
A-STILT
 70
0
 62
1
  6
CONTINUOUS
  0
LAYER
  2
A-DOOR
 70
0
 62
9
  6
CONTINUOUS
  0
LAYER
  2
A-WINDOW
 70
0
 62
4
  6
CONTINUOUS
  0
LAYER
  2
A-FURN
 70
0
 62
9
  6
CONTINUOUS
  0
LAYER
  2
A-TEXT
 70
0
 62
7
  6
CONTINUOUS
  0
LAYER
  2
A-DIMS
 70
0
 62
5
  6
CONTINUOUS
  0
LAYER
  2
A-DECK
 70
0
 62
8
  6
CONTINUOUS
  0
LAYER
  2
A-WET
 70
0
 62
4
  6
CONTINUOUS
  0
LAYER
  2
A-KITCHEN
 70
0
 62
8
  6
CONTINUOUS
  0
LAYER
  2
A-UTILITY
 70
0
 62
8
  6
CONTINUOUS
  0
LAYER
  2
A-LANDSCAPE
 70
0
 62
9
  6
CONTINUOUS
  0
LAYER
  2
A-PATH
 70
0
 62
8
  6
CONTINUOUS
  0
LAYER
  2
A-NORTH
 70
0
 62
7
  6
CONTINUOUS
  0
LAYER
  2
A-DISCLAIMER
 70
0
 62
8
  6
CONTINUOUS
  0
ENDTAB
  0
ENDSEC
  0
SECTION
  2
ENTITIES
  0
LINE
  8
A-WALL-EXT
 10
0.000
 20
12.000
 30
0.0
 11
12.000
 21
12.000
 31
0.0
  0
LINE
  8
A-WALL-EXT
 10
12.000
 20
12.000
 30
0.0
 11
12.000
 21
0.000
 31
0.0
  0
LINE
  8
A-WALL-EXT
 10
12.000
 20
0.000
 30
0.0
 11
0.000
 21
0.000
 31
0.0
  0
LINE
  8
A-WALL-EXT
 10
0.000
 20
0.000
 30
0.0
 11
0.000
 21
12.000
 31
0.0
  0
LINE
  8
A-WALL-EXT
 10
0.200
 20
11.800
 30
0.0
 11
11.800
 21
11.800
 31
0.0
  0
LINE
  8
A-WALL-EXT
 10
11.800
 20
11.800
 30
0.0
 11
11.800
 21
0.200
 31
0.0
  0
LINE
  8
A-WALL-EXT
 10
11.800
 20
0.200
 30
0.0
 11
0.200
 21
0.200
 31
0.0
  0
LINE
  8
A-WALL-EXT
 10
0.200
 20
0.200
 30
0.0
 11
0.200
 21
11.800
 31
0.0
  0
LINE
  8
A-WALL-INT
 10
5.500
 20
0.200
 30
0.0
 11
5.500
 21
11.800
 31
0.0
  0
LINE
  8
A-WALL-INT
 10
9.500
 20
7.500
 30
0.0
 11
9.500
 21
11.800
 31
0.0
  0
LINE
  8
A-WALL-INT
 10
9.500
 20
9.000
 30
0.0
 11
11.800
 21
9.000
 31
0.0
  0
LINE
  8
A-WALL-INT
 10
5.500
 20
7.500
 30
0.0
 11
11.800
 21
7.500
 31
0.0
  0
LINE
  8
A-WALL-INT
 10
8.000
 20
3.500
 30
0.0
 11
8.000
 21
7.500
 31
0.0
  0
LINE
  8
A-WALL-INT
 10
5.500
 20
5.500
 30
0.0
 11
8.000
 21
5.500
 31
0.0
  0
LINE
  8
A-WALL-INT
 10
5.500
 20
3.500
 30
0.0
 11
11.800
 21
3.500
 31
0.0
  0
LINE
  8
A-WALL-INT
 10
5.500
 20
2.000
 30
0.0
 11
8.000
 21
2.000
 31
0.0
  0
LINE
  8
A-WALL-INT
 10
8.000
 20
0.200
 30
0.0
 11
8.000
 21
3.500
 31
0.0
  0
LINE
  8
A-DECK
 10
0.000
 20
0.000
 30
0.0
 11
0.000
 21
-2.500
 31
0.0
  0
LINE
  8
A-DECK
 10
0.000
 20
-2.500
 30
0.0
 11
12.000
 21
-2.500
 31
0.0
  0
LINE
  8
A-DECK
 10
12.000
 20
-2.500
 30
0.0
 11
12.000
 21
0.000
 31
0.0
  0
LINE
  8
A-DECK
 10
0.000
 20
-2.500
 30
0.0
 11
0.000
 21
-4.500
 31
0.0
  0
LINE
  8
A-DECK
 10
0.000
 20
-4.500
 30
0.0
 11
7.000
 21
-4.500
 31
0.0
  0
LINE
  8
A-DECK
 10
7.000
 20
-4.500
 30
0.0
 11
7.000
 21
-2.500
 31
0.0
  0
LINE
  8
A-WET
 10
7.000
 20
-2.500
 30
0.0
 11
7.000
 21
-4.500
 31
0.0
  0
LINE
  8
A-WET
 10
7.000
 20
-4.500
 30
0.0
 11
12.000
 21
-4.500
 31
0.0
  0
LINE
  8
A-WET
 10
12.000
 20
-4.500
 30
0.0
 11
12.000
 21
-2.500
 31
0.0
  0
LINE
  8
A-LANDSCAPE
 10
0.000
 20
12.200
 30
0.0
 11
12.000
 21
12.200
 31
0.0
  0
LINE
  8
A-LANDSCAPE
 10
12.200
 20
0.000
 30
0.0
 11
12.200
 21
12.000
 31
0.0
  0
LINE
  8
A-KITCHEN
 10
0.200
 20
2.500
 30
0.0
 11
4.500
 21
2.500
 31
0.0
  0
LINE
  8
A-KITCHEN
 10
4.500
 20
2.500
 30
0.0
 11
4.500
 21
0.200
 31
0.0
  0
LINE
  8
A-FURN
 10
6.600
 20
9.000
 30
0.0
 11
8.400
 21
9.000
 31
0.0
  0
LINE
  8
A-FURN
 10
8.400
 20
9.000
 30
0.0
 11
8.400
 21
11.000
 31
0.0
  0
LINE
  8
A-FURN
 10
8.400
 20
11.000
 30
0.0
 11
6.600
 21
11.000
 31
0.0
  0
LINE
  8
A-FURN
 10
6.600
 20
11.000
 30
0.0
 11
6.600
 21
9.000
 31
0.0
  0
LINE
  8
A-FURN
 10
6.800
 20
10.500
 30
0.0
 11
7.400
 21
10.500
 31
0.0
  0
LINE
  8
A-FURN
 10
6.800
 20
10.800
 30
0.0
 11
7.400
 21
10.800
 31
0.0
  0
LINE
  8
A-FURN
 10
7.600
 20
10.500
 30
0.0
 11
8.200
 21
10.500
 31
0.0
  0
LINE
  8
A-FURN
 10
7.600
 20
10.800
 30
0.0
 11
8.200
 21
10.800
 31
0.0
  0
LINE
  8
A-FURN
 10
9.000
 20
4.700
 30
0.0
 11
11.000
 21
4.700
 31
0.0
  0
LINE
  8
A-FURN
 10
11.000
 20
4.700
 30
0.0
 11
11.000
 21
6.300
 31
0.0
  0
LINE
  8
A-FURN
 10
11.000
 20
6.300
 30
0.0
 11
9.000
 21
6.300
 31
0.0
  0
LINE
  8
A-FURN
 10
9.000
 20
6.300
 30
0.0
 11
9.000
 21
4.700
 31
0.0
  0
LINE
  8
A-FURN
 10
1.500
 20
9.000
 30
0.0
 11
4.500
 21
9.000
 31
0.0
  0
LINE
  8
A-FURN
 10
4.500
 20
9.000
 30
0.0
 11
4.500
 21
11.000
 31
0.0
  0
LINE
  8
A-FURN
 10
4.000
 20
9.500
 30
0.0
 11
4.000
 21
11.000
 31
0.0
  0
LINE
  8
A-FURN
 10
1.500
 20
9.500
 30
0.0
 11
4.000
 21
9.500
 31
0.0
  0
LINE
  8
A-FURN
 10
2.000
 20
4.800
 30
0.0
 11
3.500
 21
4.800
 31
0.0
  0
LINE
  8
A-FURN
 10
3.500
 20
4.800
 30
0.0
 11
3.500
 21
5.800
 31
0.0
  0
LINE
  8
A-FURN
 10
3.500
 20
5.800
 30
0.0
 11
2.000
 21
5.800
 31
0.0
  0
LINE
  8
A-FURN
 10
2.000
 20
5.800
 30
0.0
 11
2.000
 21
4.800
 31
0.0
  0
LINE
  8
A-FURN
 10
2.200
 20
4.500
 30
0.0
 11
2.500
 21
4.500
 31
0.0
  0
LINE
  8
A-FURN
 10
3.000
 20
4.500
 30
0.0
 11
3.300
 21
4.500
 31
0.0
  0
LINE
  8
A-FURN
 10
2.200
 20
6.100
 30
0.0
 11
2.500
 21
6.100
 31
0.0
  0
LINE
  8
A-FURN
 10
3.000
 20
6.100
 30
0.0
 11
3.300
 21
6.100
 31
0.0
  0
LINE
  8
A-FURN
 10
2.000
 20
-3.800
 30
0.0
 11
4.000
 21
-3.800
 31
0.0
  0
LINE
  8
A-FURN
 10
4.000
 20
-3.800
 30
0.0
 11
4.000
 21
-3.000
 31
0.0
  0
LINE
  8
A-FURN
 10
4.000
 20
-3.000
 30
0.0
 11
2.000
 21
-3.000
 31
0.0
  0
LINE
  8
A-FURN
 10
2.000
 20
-3.000
 30
0.0
 11
2.000
 21
-3.800
 31
0.0
  0
LINE
  8
A-WINDOW
 10
1.500
 20
12.000
 30
0.0
 11
4.000
 21
12.000
 31
0.0
  0
LINE
  8
A-WINDOW
 10
0.000
 20
4.000
 30
0.0
 11
0.000
 21
6.000
 31
0.0
  0
LINE
  8
A-WINDOW
 10
1.500
 20
0.000
 30
0.0
 11
3.500
 21
0.000
 31
0.0
  0
LINE
  8
A-WINDOW
 10
6.500
 20
12.000
 30
0.0
 11
8.500
 21
12.000
 31
0.0
  0
LINE
  8
A-WINDOW
 10
12.000
 20
4.500
 30
0.0
 11
12.000
 21
6.500
 31
0.0
  0
LINE
  8
A-WINDOW
 10
10.500
 20
12.000
 30
0.0
 11
11.500
 21
12.000
 31
0.0
  0
LINE
  8
A-DOOR
 10
0.000
 20
10.000
 30
0.0
 11
0.000
 21
11.500
 31
0.0
  0
LINE
  8
A-DOOR
 10
2.000
 20
0.000
 30
0.0
 11
5.000
 21
0.000
 31
0.0
  0
LINE
  8
A-DOOR
 10
5.500
 20
7.800
 30
0.0
 11
5.500
 21
8.600
 31
0.0
  0
LINE
  8
A-DOOR
 10
9.500
 20
9.800
 30
0.0
 11
9.500
 21
10.600
 31
0.0
  0
LINE
  8
A-DOOR
 10
8.000
 20
6.500
 30
0.0
 11
8.000
 21
7.300
 31
0.0
  0
LINE
  8
A-DOOR
 10
5.800
 20
5.500
 30
0.0
 11
6.600
 21
5.500
 31
0.0
  0
LINE
  8
A-DOOR
 10
5.800
 20
2.000
 30
0.0
 11
6.600
 21
2.000
 31
0.0
  0
LINE
  8
A-DOOR
 10
8.000
 20
2.200
 30
0.0
 11
8.000
 21
3.000
 31
0.0
  0
CIRCLE
  8
A-STILT
 10
0.000
 20
0.000
 30
0.0
 40
0.150
  0
LINE
  8
A-STILT
 10
-0.250
 20
0.000
 30
0.0
 11
0.250
 21
0.000
 31
0.0
  0
LINE
  8
A-STILT
 10
0.000
 20
-0.250
 30
0.0
 11
0.000
 21
0.250
 31
0.0
  0
CIRCLE
  8
A-STILT
 10
0.000
 20
3.500
 30
0.0
 40
0.150
  0
LINE
  8
A-STILT
 10
-0.250
 20
3.500
 30
0.0
 11
0.250
 21
3.500
 31
0.0
  0
LINE
  8
A-STILT
 10
0.000
 20
3.250
 30
0.0
 11
0.000
 21
3.750
 31
0.0
  0
CIRCLE
  8
A-STILT
 10
0.000
 20
7.500
 30
0.0
 40
0.150
  0
LINE
  8
A-STILT
 10
-0.250
 20
7.500
 30
0.0
 11
0.250
 21
7.500
 31
0.0
  0
LINE
  8
A-STILT
 10
0.000
 20
7.250
 30
0.0
 11
0.000
 21
7.750
 31
0.0
  0
CIRCLE
  8
A-STILT
 10
0.000
 20
12.000
 30
0.0
 40
0.150
  0
LINE
  8
A-STILT
 10
-0.250
 20
12.000
 30
0.0
 11
0.250
 21
12.000
 31
0.0
  0
LINE
  8
A-STILT
 10
0.000
 20
11.750
 30
0.0
 11
0.000
 21
12.250
 31
0.0
  0
CIRCLE
  8
A-STILT
 10
5.500
 20
0.000
 30
0.0
 40
0.150
  0
LINE
  8
A-STILT
 10
5.250
 20
0.000
 30
0.0
 11
5.750
 21
0.000
 31
0.0
  0
LINE
  8
A-STILT
 10
5.500
 20
-0.250
 30
0.0
 11
5.500
 21
0.250
 31
0.0
  0
CIRCLE
  8
A-STILT
 10
5.500
 20
3.500
 30
0.0
 40
0.150
  0
LINE
  8
A-STILT
 10
5.250
 20
3.500
 30
0.0
 11
5.750
 21
3.500
 31
0.0
  0
LINE
  8
A-STILT
 10
5.500
 20
3.250
 30
0.0
 11
5.500
 21
3.750
 31
0.0
  0
CIRCLE
  8
A-STILT
 10
5.500
 20
7.500
 30
0.0
 40
0.150
  0
LINE
  8
A-STILT
 10
5.250
 20
7.500
 30
0.0
 11
5.750
 21
7.500
 31
0.0
  0
LINE
  8
A-STILT
 10
5.500
 20
7.250
 30
0.0
 11
5.500
 21
7.750
 31
0.0
  0
CIRCLE
  8
A-STILT
 10
5.500
 20
12.000
 30
0.0
 40
0.150
  0
LINE
  8
A-STILT
 10
5.250
 20
12.000
 30
0.0
 11
5.750
 21
12.000
 31
0.0
  0
LINE
  8
A-STILT
 10
5.500
 20
11.750
 30
0.0
 11
5.500
 21
12.250
 31
0.0
  0
CIRCLE
  8
A-STILT
 10
8.000
 20
3.500
 30
0.0
 40
0.150
  0
LINE
  8
A-STILT
 10
7.750
 20
3.500
 30
0.0
 11
8.250
 21
3.500
 31
0.0
  0
LINE
  8
A-STILT
 10
8.000
 20
3.250
 30
0.0
 11
8.000
 21
3.750
 31
0.0
  0
CIRCLE
  8
A-STILT
 10
8.000
 20
7.500
 30
0.0
 40
0.150
  0
LINE
  8
A-STILT
 10
7.750
 20
7.500
 30
0.0
 11
8.250
 21
7.500
 31
0.0
  0
LINE
  8
A-STILT
 10
8.000
 20
7.250
 30
0.0
 11
8.000
 21
7.750
 31
0.0
  0
CIRCLE
  8
A-STILT
 10
12.000
 20
0.000
 30
0.0
 40
0.150
  0
LINE
  8
A-STILT
 10
11.750
 20
0.000
 30
0.0
 11
12.250
 21
0.000
 31
0.0
  0
LINE
  8
A-STILT
 10
12.000
 20
-0.250
 30
0.0
 11
12.000
 21
0.250
 31
0.0
  0
CIRCLE
  8
A-STILT
 10
12.000
 20
3.500
 30
0.0
 40
0.150
  0
LINE
  8
A-STILT
 10
11.750
 20
3.500
 30
0.0
 11
12.250
 21
3.500
 31
0.0
  0
LINE
  8
A-STILT
 10
12.000
 20
3.250
 30
0.0
 11
12.000
 21
3.750
 31
0.0
  0
CIRCLE
  8
A-STILT
 10
12.000
 20
7.500
 30
0.0
 40
0.150
  0
LINE
  8
A-STILT
 10
11.750
 20
7.500
 30
0.0
 11
12.250
 21
7.500
 31
0.0
  0
LINE
  8
A-STILT
 10
12.000
 20
7.250
 30
0.0
 11
12.000
 21
7.750
 31
0.0
  0
CIRCLE
  8
A-STILT
 10
12.000
 20
12.000
 30
0.0
 40
0.150
  0
LINE
  8
A-STILT
 10
11.750
 20
12.000
 30
0.0
 11
12.250
 21
12.000
 31
0.0
  0
LINE
  8
A-STILT
 10
12.000
 20
11.750
 30
0.0
 11
12.000
 21
12.250
 31
0.0
  0
CIRCLE
  8
A-STILT
 10
0.000
 20
-2.500
 30
0.0
 40
0.150
  0
LINE
  8
A-STILT
 10
-0.250
 20
-2.500
 30
0.0
 11
0.250
 21
-2.500
 31
0.0
  0
LINE
  8
A-STILT
 10
0.000
 20
-2.750
 30
0.0
 11
0.000
 21
-2.250
 31
0.0
  0
CIRCLE
  8
A-STILT
 10
5.500
 20
-2.500
 30
0.0
 40
0.150
  0
LINE
  8
A-STILT
 10
5.250
 20
-2.500
 30
0.0
 11
5.750
 21
-2.500
 31
0.0
  0
LINE
  8
A-STILT
 10
5.500
 20
-2.750
 30
0.0
 11
5.500
 21
-2.250
 31
0.0
  0
CIRCLE
  8
A-STILT
 10
12.000
 20
-2.500
 30
0.0
 40
0.150
  0
LINE
  8
A-STILT
 10
11.750
 20
-2.500
 30
0.0
 11
12.250
 21
-2.500
 31
0.0
  0
LINE
  8
A-STILT
 10
12.000
 20
-2.750
 30
0.0
 11
12.000
 21
-2.250
 31
0.0
  0
CIRCLE
  8
A-STILT
 10
0.000
 20
-4.500
 30
0.0
 40
0.150
  0
LINE
  8
A-STILT
 10
-0.250
 20
-4.500
 30
0.0
 11
0.250
 21
-4.500
 31
0.0
  0
LINE
  8
A-STILT
 10
0.000
 20
-4.750
 30
0.0
 11
0.000
 21
-4.250
 31
0.0
  0
CIRCLE
  8
A-STILT
 10
7.000
 20
-4.500
 30
0.0
 40
0.150
  0
LINE
  8
A-STILT
 10
6.750
 20
-4.500
 30
0.0
 11
7.250
 21
-4.500
 31
0.0
  0
LINE
  8
A-STILT
 10
7.000
 20
-4.750
 30
0.0
 11
7.000
 21
-4.250
 31
0.0
  0
CIRCLE
  8
A-STILT
 10
12.000
 20
-4.500
 30
0.0
 40
0.150
  0
LINE
  8
A-STILT
 10
11.750
 20
-4.500
 30
0.0
 11
12.250
 21
-4.500
 31
0.0
  0
LINE
  8
A-STILT
 10
12.000
 20
-4.750
 30
0.0
 11
12.000
 21
-4.250
 31
0.0
  0
TEXT
  8
A-TEXT
 10
2.000
 20
11.500
 30
0.0
 40
0.250
  1
ENTRY FOYER
 50
0.0
  0
TEXT
  8
A-TEXT
 10
2.000
 20
11.150
 30
0.0
 40
0.180
  1
100 sq.ft (9.3 sq.m)
 50
0.0
  0
TEXT
  8
A-TEXT
 10
2.800
 20
9.800
 30
0.0
 40
0.250
  1
LIVING LOUNGE
 50
0.0
  0
TEXT
  8
A-TEXT
 10
2.800
 20
9.450
 30
0.0
 40
0.180
  1
250 sq.ft (23.2 sq.m)
 50
0.0
  0
TEXT
  8
A-TEXT
 10
2.800
 20
5.300
 30
0.0
 40
0.250
  1
FAMILY DINING
 50
0.0
  0
TEXT
  8
A-TEXT
 10
2.800
 20
4.950
 30
0.0
 40
0.180
  1
180 sq.ft (16.7 sq.m)
 50
0.0
  0
TEXT
  8
A-TEXT
 10
2.800
 20
1.800
 30
0.0
 40
0.250
  1
OPEN KITCHEN
 50
0.0
  0
TEXT
  8
A-TEXT
 10
2.800
 20
1.450
 30
0.0
 40
0.180
  1
150 sq.ft (13.9 sq.m)
 50
0.0
  0
TEXT
  8
A-TEXT
 10
7.500
 20
9.800
 30
0.0
 40
0.250
  1
MASTER BEDROOM
 50
0.0
  0
TEXT
  8
A-TEXT
 10
7.500
 20
9.450
 30
0.0
 40
0.180
  1
240 sq.ft (22.3 sq.m)
 50
0.0
  0
TEXT
  8
A-TEXT
 10
10.800
 20
10.500
 30
0.0
 40
0.250
  1
MASTER BATH
 50
0.0
  0
TEXT
  8
A-TEXT
 10
10.800
 20
10.150
 30
0.0
 40
0.180
  1
80 sq.ft (7.4 sq.m)
 50
0.0
  0
TEXT
  8
A-TEXT
 10
10.800
 20
8.300
 30
0.0
 40
0.250
  1
MASTER CLOSET
 50
0.0
  0
TEXT
  8
A-TEXT
 10
10.800
 20
7.950
 30
0.0
 40
0.180
  1
40 sq.ft (3.7 sq.m)
 50
0.0
  0
TEXT
  8
A-TEXT
 10
10.000
 20
5.500
 30
0.0
 40
0.250
  1
BEDROOM 2 (GUEST)
 50
0.0
  0
TEXT
  8
A-TEXT
 10
10.000
 20
5.150
 30
0.0
 40
0.180
  1
220 sq.ft (20.4 sq.m)
 50
0.0
  0
TEXT
  8
A-TEXT
 10
6.800
 20
6.500
 30
0.0
 40
0.250
  1
GUEST BATH
 50
0.0
  0
TEXT
  8
A-TEXT
 10
6.800
 20
6.150
 30
0.0
 40
0.180
  1
70 sq.ft (6.5 sq.m)
 50
0.0
  0
TEXT
  8
A-TEXT
 10
6.800
 20
1.000
 30
0.0
 40
0.250
  1
POWDER TOILET
 50
0.0
  0
TEXT
  8
A-TEXT
 10
6.800
 20
0.650
 30
0.0
 40
0.180
  1
50 sq.ft (4.6 sq.m)
 50
0.0
  0
TEXT
  8
A-TEXT
 10
10.000
 20
1.800
 30
0.0
 40
0.250
  1
UTILITY / SOLAR
 50
0.0
  0
TEXT
  8
A-TEXT
 10
10.000
 20
1.450
 30
0.0
 40
0.180
  1
120 sq.ft (11.1 sq.m)
 50
0.0
  0
TEXT
  8
A-TEXT
 10
6.000
 20
-1.300
 30
0.0
 40
0.250
  1
FOREST DECK
 50
0.0
  0
TEXT
  8
A-TEXT
 10
6.000
 20
-1.650
 30
0.0
 40
0.180
  1
240 sq.ft (22.3 sq.m)
 50
0.0
  0
TEXT
  8
A-TEXT
 10
9.500
 20
-3.400
 30
0.0
 40
0.250
  1
PLUNGE POOL
 50
0.0
  0
TEXT
  8
A-TEXT
 10
9.500
 20
-3.750
 30
0.0
 40
0.180
  1
120 sq.ft (11.1 sq.m)
 50
0.0
  0
TEXT
  8
A-TEXT
 10
3.500
 20
-3.400
 30
0.0
 40
0.250
  1
OUTDOOR DINING
 50
0.0
  0
TEXT
  8
A-TEXT
 10
3.500
 20
-3.750
 30
0.0
 40
0.180
  1
100 sq.ft (9.3 sq.m)
 50
0.0
  0
LINE
  8
A-DIMS
 10
0.000
 20
13.200
 30
0.0
 11
12.000
 21
13.200
 31
0.0
  0
CIRCLE
  8
A-DIMS
 10
0.000
 20
13.200
 30
0.0
 40
0.050
  0
CIRCLE
  8
A-DIMS
 10
12.000
 20
13.200
 30
0.0
 40
0.050
  0
TEXT
  8
A-DIMS
 10
6.000
 20
13.450
 30
0.0
 40
0.200
  1
12.00m (39' 4") OVERALL WIDTH
 50
0.0
  0
LINE
  8
A-DIMS
 10
0.000
 20
12.600
 30
0.0
 11
5.500
 21
12.600
 31
0.0
  0
CIRCLE
  8
A-DIMS
 10
0.000
 20
12.600
 30
0.0
 40
0.050
  0
CIRCLE
  8
A-DIMS
 10
5.500
 20
12.600
 30
0.0
 40
0.050
  0
TEXT
  8
A-DIMS
 10
2.750
 20
12.850
 30
0.0
 40
0.200
  1
5.50m (18' 0") SOCIAL ZONE
 50
0.0
  0
LINE
  8
A-DIMS
 10
5.500
 20
12.600
 30
0.0
 11
12.000
 21
12.600
 31
0.0
  0
CIRCLE
  8
A-DIMS
 10
5.500
 20
12.600
 30
0.0
 40
0.050
  0
CIRCLE
  8
A-DIMS
 10
12.000
 20
12.600
 30
0.0
 40
0.050
  0
TEXT
  8
A-DIMS
 10
8.750
 20
12.850
 30
0.0
 40
0.200
  1
6.50m (21' 4") PRIVATE ZONE
 50
0.0
  0
LINE
  8
A-DIMS
 10
-1.500
 20
-4.500
 30
0.0
 11
-1.500
 21
12.000
 31
0.0
  0
CIRCLE
  8
A-DIMS
 10
-1.500
 20
-4.500
 30
0.0
 40
0.050
  0
CIRCLE
  8
A-DIMS
 10
-1.500
 20
12.000
 30
0.0
 40
0.050
  0
TEXT
  8
A-DIMS
 10
-1.800
 20
3.750
 30
0.0
 40
0.200
  1
16.50m (54' 2") OVERALL LENGTH
 50
90.0
  0
LINE
  8
A-DIMS
 10
0.000
 20
-5.500
 30
0.0
 11
7.000
 21
-5.500
 31
0.0
  0
CIRCLE
  8
A-DIMS
 10
0.000
 20
-5.500
 30
0.0
 40
0.050
  0
CIRCLE
  8
A-DIMS
 10
7.000
 20
-5.500
 30
0.0
 40
0.050
  0
TEXT
  8
A-DIMS
 10
3.500
 20
-5.250
 30
0.0
 40
0.200
  1
7.00m (23' 0") DINING DECK
 50
0.0
  0
LINE
  8
A-DIMS
 10
7.000
 20
-5.500
 30
0.0
 11
12.000
 21
-5.500
 31
0.0
  0
CIRCLE
  8
A-DIMS
 10
7.000
 20
-5.500
 30
0.0
 40
0.050
  0
CIRCLE
  8
A-DIMS
 10
12.000
 20
-5.500
 30
0.0
 40
0.050
  0
TEXT
  8
A-DIMS
 10
9.500
 20
-5.250
 30
0.0
 40
0.200
  1
5.00m (16' 5") PLUNGE POOL
 50
0.0
  0
TEXT
  8
A-DISCLAIMER
 10
1.000
 20
-5.800
 30
0.0
 40
0.160
  1
TECHNICAL COVENANT NOTICE:
 50
0.0
  0
TEXT
  8
A-DISCLAIMER
 10
1.000
 20
-6.050
 30
0.0
 40
0.160
  1
ALL DIMENSIONS AND COORDINATES SHOWN ARE CONCEPTUAL ONLY AND INDICATIVE OF PROPOSED PROGRAM.
 50
0.0
  0
TEXT
  8
A-DISCLAIMER
 10
1.000
 20
-6.300
 30
0.0
 40
0.160
  1
THIS IS NOT AN EXECUTION DRAWING AND IS STRICTLY NOT FOR SITE CONSTRUCTION WORK.
 50
0.0
  0
TEXT
  8
A-DISCLAIMER
 10
1.000
 20
-6.550
 30
0.0
 40
0.160
  1
FINAL DIMENSIONS ARE SUBJECT TO ACTUAL LICENSED LAND SURVEYS, STRUCTURAL Borehole CHECKS,
 50
0.0
  0
TEXT
  8
A-DISCLAIMER
 10
1.000
 20
-6.800
 30
0.0
 40
0.160
  1
AND LOCAL ENVIRONMENT BUFFER / TCP / RERA AUTHORITY STAMPS.
 50
0.0
  0
CIRCLE
  8
A-NORTH
 10
-3.000
 20
10.000
 30
0.0
 40
0.400
  0
LINE
  8
A-NORTH
 10
-3.000
 20
9.600
 30
0.0
 11
-3.000
 21
10.500
 31
0.0
  0
LINE
  8
A-NORTH
 10
-3.000
 20
10.500
 30
0.0
 11
-3.200
 21
10.100
 31
0.0
  0
LINE
  8
A-NORTH
 10
-3.000
 20
10.500
 30
0.0
 11
-2.800
 21
10.100
 31
0.0
  0
TEXT
  8
A-NORTH
 10
-3.000
 20
10.700
 30
0.0
 40
0.240
  1
N
 50
0.0
  0
LINE
  8
A-TEXT
 10
13.000
 20
-4.500
 30
0.0
 11
18.000
 21
-4.500
 31
0.0
  0
LINE
  8
A-TEXT
 10
18.000
 20
-4.500
 30
0.0
 11
18.000
 21
-0.500
 31
0.0
  0
LINE
  8
A-TEXT
 10
18.000
 20
-0.500
 30
0.0
 11
13.000
 21
-0.500
 31
0.0
  0
LINE
  8
A-TEXT
 10
13.000
 20
-0.500
 30
0.0
 11
13.000
 21
-4.500
 31
0.0
  0
LINE
  8
A-TEXT
 10
13.000
 20
-1.100
 30
0.0
 11
18.000
 21
-1.100
 31
0.0
  0
TEXT
  8
A-TEXT
 10
13.300
 20
-0.950
 30
0.0
 40
0.260
  1
RESERVA VERDE GOA
 50
0.0
  0
TEXT
  8
A-TEXT
 10
13.300
 20
-1.500
 30
0.0
 40
0.180
  1
Model: 2BHK Forest Estate
 50
0.0
  0
TEXT
  8
A-TEXT
 10
13.300
 20
-1.800
 30
0.0
 40
0.160
  1
Drawing: Architectural Plan
 50
0.0
  0
TEXT
  8
A-TEXT
 10
13.300
 20
-2.100
 30
0.0
 40
0.150
  1
ID: RV-ARCH-2BHK-01
 50
0.0
  0
TEXT
  8
A-TEXT
 10
13.300
 20
-2.400
 30
0.0
 40
0.140
  1
Scale: Indicative / 1:100 @ A3
 50
0.0
  0
TEXT
  8
A-TEXT
 10
13.300
 20
-2.700
 30
0.0
 40
0.140
  1
Revision: R0
 50
0.0
  0
TEXT
  8
A-TEXT
 10
13.300
 20
-3.000
 30
0.0
 40
0.140
  1
Date: May 30, 2026
 50
0.0
  0
TEXT
  8
A-TEXT
 10
13.300
 20
-3.300
 30
0.0
 40
0.140
  1
Status: HNI + Architect Review
 50
0.0
  0
TEXT
  8
A-TEXT
 10
13.300
 20
-3.700
 30
0.0
 40
0.120
  1
ALL DIMENSIONS IN METERS
 50
0.0
  0
ENDSEC
  0
EOF
