  0
SECTION
  2
HEADER
  9
$ACADVER
  1
AC1009
  0
ENDSEC
  0
SECTION
  2
TABLES
  0
TABLE
  2
LAYER
 70
16
  0
LAYER
  2
A-WALL-EXT
 70
0
 62
3
  6
CONTINUOUS
  0
LAYER
  2
A-WALL-INT
 70
0
 62
4
  6
CONTINUOUS
  0
LAYER
  2
A-STILT
 70
0
 62
1
  6
CONTINUOUS
  0
LAYER
  2
A-DOOR
 70
0
 62
2
  6
CONTINUOUS
  0
LAYER
  2
A-WINDOW
 70
0
 62
5
  6
CONTINUOUS
  0
LAYER
  2
A-FURN
 70
0
 62
9
  6
CONTINUOUS
  0
LAYER
  2
A-TEXT
 70
0
 62
7
  6
CONTINUOUS
  0
LAYER
  2
A-DIMS
 70
0
 62
8
  6
CONTINUOUS
  0
LAYER
  2
A-DECK
 70
0
 62
30
  6
CONTINUOUS
  0
LAYER
  2
A-WET
 70
0
 62
140
  6
CONTINUOUS
  0
LAYER
  2
A-KITCHEN
 70
0
 62
40
  6
CONTINUOUS
  0
LAYER
  2
A-UTILITY
 70
0
 62
6
  6
CONTINUOUS
  0
LAYER
  2
A-LANDSCAPE
 70
0
 62
62
  6
CONTINUOUS
  0
LAYER
  2
A-PATH
 70
0
 62
22
  6
CONTINUOUS
  0
LAYER
  2
A-NORTH
 70
0
 62
7
  6
CONTINUOUS
  0
LAYER
  2
A-DISCLAIMER
 70
0
 62
8
  6
CONTINUOUS
  0
ENDTAB
  0
ENDSEC
  0
SECTION
  2
ENTITIES
  0
LINE
  8
A-WALL-EXT
 10
6.143
 20
22.143
 30
0.0
 11
18.343
 21
22.143
 31
0.0
  0
LINE
  8
A-WALL-EXT
 10
18.343
 20
22.143
 30
0.0
 11
18.343
 21
5.063
 31
0.0
  0
LINE
  8
A-WALL-EXT
 10
18.343
 20
5.063
 30
0.0
 11
13.463
 21
5.063
 31
0.0
  0
LINE
  8
A-WALL-EXT
 10
13.463
 20
5.063
 30
0.0
 11
13.463
 21
17.263
 31
0.0
  0
LINE
  8
A-WALL-EXT
 10
13.463
 20
17.263
 30
0.0
 11
11.023
 21
17.263
 31
0.0
  0
LINE
  8
A-WALL-EXT
 10
11.023
 20
17.263
 30
0.0
 11
11.023
 21
5.063
 31
0.0
  0
LINE
  8
A-WALL-EXT
 10
11.023
 20
5.063
 30
0.0
 11
6.143
 21
5.063
 31
0.0
  0
LINE
  8
A-WALL-EXT
 10
6.143
 20
5.063
 30
0.0
 11
6.143
 21
22.143
 31
0.0
  0
LINE
  8
A-WALL-EXT
 10
6.343
 20
21.943
 30
0.0
 11
18.143
 21
21.943
 31
0.0
  0
LINE
  8
A-WALL-EXT
 10
18.143
 20
21.943
 30
0.0
 11
18.143
 21
5.263
 31
0.0
  0
LINE
  8
A-WALL-EXT
 10
18.143
 20
5.263
 30
0.0
 11
13.663
 21
5.263
 31
0.0
  0
LINE
  8
A-WALL-EXT
 10
13.663
 20
5.263
 30
0.0
 11
13.663
 21
17.463
 31
0.0
  0
LINE
  8
A-WALL-EXT
 10
13.663
 20
17.463
 30
0.0
 11
10.823
 21
17.463
 31
0.0
  0
LINE
  8
A-WALL-EXT
 10
10.823
 20
17.463
 30
0.0
 11
10.823
 21
5.263
 31
0.0
  0
LINE
  8
A-WALL-EXT
 10
10.823
 20
5.263
 30
0.0
 11
6.343
 21
5.263
 31
0.0
  0
LINE
  8
A-WALL-EXT
 10
6.343
 20
5.263
 30
0.0
 11
6.343
 21
21.943
 31
0.0
  0
LINE
  8
A-WALL-INT
 10
9.143
 20
22.143
 30
0.0
 11
9.143
 21
19.703
 31
0.0
  0
LINE
  8
A-WALL-INT
 10
9.143
 20
19.703
 30
0.0
 11
18.143
 21
19.703
 31
0.0
  0
LINE
  8
A-WALL-INT
 10
12.643
 20
19.703
 30
0.0
 11
12.643
 21
17.463
 31
0.0
  0
LINE
  8
A-WALL-INT
 10
8.571
 20
17.063
 30
0.0
 11
8.571
 21
5.263
 31
0.0
  0
LINE
  8
A-WALL-INT
 10
15.903
 20
17.063
 30
0.0
 11
15.903
 21
5.263
 31
0.0
  0
LINE
  8
A-WALL-INT
 10
13.663
 20
13.603
 30
0.0
 11
15.703
 21
13.603
 31
0.0
  0
LINE
  8
A-WALL-INT
 10
13.663
 20
8.103
 30
0.0
 11
15.703
 21
8.103
 31
0.0
  0
LINE
  8
A-WALL-INT
 10
19.843
 20
12.263
 30
0.0
 11
22.283
 21
12.263
 31
0.0
  0
LINE
  8
A-WINDOW
 10
18.343
 20
18.903
 30
0.0
 11
18.343
 21
17.503
 31
0.0
  0
LINE
  8
A-WINDOW
 10
18.393
 20
18.903
 30
0.0
 11
18.393
 21
17.503
 31
0.0
  0
LINE
  8
A-WINDOW
 10
18.293
 20
18.903
 30
0.0
 11
18.293
 21
17.503
 31
0.0
  0
TEXT
  8
A-TEXT
 10
18.343
 20
18.203
 30
0.0
 40
0.180
  1
W-03
 50
0.0
  0
LINE
  8
A-WINDOW
 10
6.143
 20
14.763
 30
0.0
 11
6.143
 21
12.263
 31
0.0
  0
LINE
  8
A-WINDOW
 10
6.193
 20
14.763
 30
0.0
 11
6.193
 21
12.263
 31
0.0
  0
LINE
  8
A-WINDOW
 10
6.093
 20
14.763
 30
0.0
 11
6.093
 21
12.263
 31
0.0
  0
TEXT
  8
A-TEXT
 10
6.143
 20
13.513
 30
0.0
 40
0.180
  1
W-04
 50
0.0
  0
LINE
  8
A-WINDOW
 10
8.583
 20
13.763
 30
0.0
 11
8.583
 21
13.063
 31
0.0
  0
LINE
  8
A-WINDOW
 10
8.633
 20
13.763
 30
0.0
 11
8.633
 21
13.063
 31
0.0
  0
LINE
  8
A-WINDOW
 10
8.533
 20
13.763
 30
0.0
 11
8.533
 21
13.063
 31
0.0
  0
TEXT
  8
A-TEXT
 10
8.583
 20
13.413
 30
0.0
 40
0.180
  1
W-05
 50
0.0
  0
LINE
  8
A-WINDOW
 10
6.143
 20
10.763
 30
0.0
 11
6.143
 21
10.163
 31
0.0
  0
LINE
  8
A-WINDOW
 10
6.193
 20
10.763
 30
0.0
 11
6.193
 21
10.163
 31
0.0
  0
LINE
  8
A-WINDOW
 10
6.093
 20
10.763
 30
0.0
 11
6.093
 21
10.163
 31
0.0
  0
TEXT
  8
A-TEXT
 10
6.143
 20
10.463
 30
0.0
 40
0.180
  1
W-06
 50
0.0
  0
LINE
  8
A-WINDOW
 10
18.343
 20
14.763
 30
0.0
 11
18.343
 21
12.263
 31
0.0
  0
LINE
  8
A-WINDOW
 10
18.393
 20
14.763
 30
0.0
 11
18.393
 21
12.263
 31
0.0
  0
LINE
  8
A-WINDOW
 10
18.293
 20
14.763
 30
0.0
 11
18.293
 21
12.263
 31
0.0
  0
TEXT
  8
A-TEXT
 10
18.343
 20
13.513
 30
0.0
 40
0.180
  1
W-07
 50
0.0
  0
LINE
  8
A-WINDOW
 10
18.343
 20
10.763
 30
0.0
 11
18.343
 21
9.763
 31
0.0
  0
LINE
  8
A-WINDOW
 10
18.393
 20
10.763
 30
0.0
 11
18.393
 21
9.763
 31
0.0
  0
LINE
  8
A-WINDOW
 10
18.293
 20
10.763
 30
0.0
 11
18.293
 21
9.763
 31
0.0
  0
TEXT
  8
A-TEXT
 10
18.343
 20
10.263
 30
0.0
 40
0.180
  1
W-09
 50
0.0
  0
LINE
  8
A-DOOR
 10
13.143
 20
22.143
 30
0.0
 11
15.543
 21
22.143
 31
0.0
  0
TEXT
  8
A-TEXT
 10
14.343
 20
22.293
 30
0.0
 40
0.180
  1
SD-01
 50
0.0
  0
LINE
  8
A-DOOR
 10
10.143
 20
17.263
 30
0.0
 11
12.543
 21
17.263
 31
0.0
  0
TEXT
  8
A-TEXT
 10
11.343
 20
17.413
 30
0.0
 40
0.180
  1
SD-02
 50
0.0
  0
LINE
  8
A-DOOR
 10
8.583
 20
9.763
 30
0.0
 11
8.583
 21
7.763
 31
0.0
  0
TEXT
  8
A-TEXT
 10
8.583
 20
8.913
 30
0.0
 40
0.180
  1
SD-04
 50
0.0
  0
LINE
  8
A-DOOR
 10
15.903
 20
9.763
 30
0.0
 11
15.903
 21
7.763
 31
0.0
  0
TEXT
  8
A-TEXT
 10
15.903
 20
8.913
 30
0.0
 40
0.180
  1
SD-05
 50
0.0
  0
LINE
  8
A-DOOR
 10
6.443
 20
5.063
 30
0.0
 11
7.943
 21
5.063
 31
0.0
  0
TEXT
  8
A-TEXT
 10
7.193
 20
5.213
 30
0.0
 40
0.180
  1
D-11
 50
0.0
  0
LINE
  8
A-DOOR
 10
16.100
 20
5.063
 30
0.0
 11
17.600
 21
5.063
 31
0.0
  0
TEXT
  8
A-TEXT
 10
16.850
 20
5.213
 30
0.0
 40
0.180
  1
D-12
 50
0.0
  0
LINE
  8
A-DOOR
 10
8.411
 20
20.557
 30
0.0
 11
9.143
 21
20.557
 31
0.0
  0
LINE
  8
A-DOOR
 10
9.143
 20
20.557
 30
0.0
 11
9.143
 21
19.825
 31
0.0
  0
TEXT
  8
A-TEXT
 10
8.511
 20
20.657
 30
0.0
 40
0.150
  1
D-01
 50
0.0
  0
LINE
  8
A-DOOR
 10
7.683
 20
16.063
 30
0.0
 11
8.583
 21
16.063
 31
0.0
  0
LINE
  8
A-DOOR
 10
8.583
 20
16.063
 30
0.0
 11
8.583
 21
15.163
 31
0.0
  0
TEXT
  8
A-TEXT
 10
7.783
 20
16.163
 30
0.0
 40
0.150
  1
D-02
 50
0.0
  0
LINE
  8
A-DOOR
 10
10.483
 20
14.213
 30
0.0
 11
9.583
 21
14.213
 31
0.0
  0
LINE
  8
A-DOOR
 10
9.583
 20
14.213
 30
0.0
 11
9.583
 21
15.113
 31
0.0
  0
TEXT
  8
A-TEXT
 10
10.583
 20
14.313
 30
0.0
 40
0.150
  1
D-03
 50
0.0
  0
LINE
  8
A-DOOR
 10
10.483
 20
10.553
 30
0.0
 11
9.583
 21
10.553
 31
0.0
  0
LINE
  8
A-DOOR
 10
9.583
 20
10.553
 30
0.0
 11
9.583
 21
11.453
 31
0.0
  0
TEXT
  8
A-TEXT
 10
10.583
 20
10.653
 30
0.0
 40
0.150
  1
D-04
 50
0.0
  0
LINE
  8
A-DOOR
 10
15.003
 20
16.063
 30
0.0
 11
15.903
 21
16.063
 31
0.0
  0
LINE
  8
A-DOOR
 10
15.903
 20
16.063
 30
0.0
 11
15.903
 21
15.163
 31
0.0
  0
TEXT
  8
A-TEXT
 10
15.103
 20
16.163
 30
0.0
 40
0.150
  1
D-05
 50
0.0
  0
LINE
  8
A-DOOR
 10
15.363
 20
13.603
 30
0.0
 11
14.463
 21
13.603
 31
0.0
  0
LINE
  8
A-DOOR
 10
14.463
 20
13.603
 30
0.0
 11
14.463
 21
14.503
 31
0.0
  0
TEXT
  8
A-TEXT
 10
15.463
 20
13.703
 30
0.0
 40
0.150
  1
D-06
 50
0.0
  0
LINE
  8
A-DOOR
 10
15.363
 20
8.103
 30
0.0
 11
14.463
 21
8.103
 31
0.0
  0
LINE
  8
A-DOOR
 10
14.463
 20
8.103
 30
0.0
 11
14.463
 21
9.003
 31
0.0
  0
TEXT
  8
A-TEXT
 10
15.463
 20
8.203
 30
0.0
 40
0.150
  1
D-07
 50
0.0
  0
LINE
  8
A-DOOR
 10
18.943
 20
14.763
 30
0.0
 11
19.843
 21
14.763
 31
0.0
  0
LINE
  8
A-DOOR
 10
19.843
 20
14.763
 30
0.0
 11
19.843
 21
15.663
 31
0.0
  0
TEXT
  8
A-TEXT
 10
19.043
 20
14.863
 30
0.0
 40
0.150
  1
D-13
 50
0.0
  0
LINE
  8
A-LANDSCAPE
 10
11.023
 20
17.263
 30
0.0
 11
13.463
 21
17.263
 31
0.0
  0
LINE
  8
A-LANDSCAPE
 10
13.463
 20
17.263
 30
0.0
 11
13.463
 21
5.063
 31
0.0
  0
LINE
  8
A-LANDSCAPE
 10
13.463
 20
5.063
 30
0.0
 11
11.023
 21
5.063
 31
0.0
  0
LINE
  8
A-LANDSCAPE
 10
11.023
 20
5.063
 30
0.0
 11
11.023
 21
17.263
 31
0.0
  0
TEXT
  8
A-TEXT
 10
12.243
 20
11.163
 30
0.0
 40
0.220
  1
Central Biophilic Court
 50
0.0
  0
LINE
  8
A-DECK
 10
5.643
 20
4.663
 30
0.0
 11
18.843
 21
4.663
 31
0.0
  0
LINE
  8
A-DECK
 10
18.843
 20
4.663
 30
0.0
 11
18.843
 21
1.663
 31
0.0
  0
LINE
  8
A-DECK
 10
18.843
 20
1.663
 30
0.0
 11
5.643
 21
1.663
 31
0.0
  0
LINE
  8
A-DECK
 10
5.643
 20
1.663
 30
0.0
 11
5.643
 21
4.663
 31
0.0
  0
TEXT
  8
A-TEXT
 10
12.243
 20
3.163
 30
0.0
 40
0.220
  1
Forest-Facing Deck
 50
0.0
  0
LINE
  8
A-WET
 10
13.563
 20
1.163
 30
0.0
 11
19.563
 21
1.163
 31
0.0
  0
LINE
  8
A-WET
 10
19.563
 20
1.163
 30
0.0
 11
19.563
 21
-1.337
 31
0.0
  0
LINE
  8
A-WET
 10
19.563
 20
-1.337
 30
0.0
 11
13.563
 21
-1.337
 31
0.0
  0
LINE
  8
A-WET
 10
13.563
 20
-1.337
 30
0.0
 11
13.563
 21
1.163
 31
0.0
  0
TEXT
  8
A-TEXT
 10
16.563
 20
-0.087
 30
0.0
 40
0.220
  1
Plunge Pool
 50
0.0
  0
LINE
  8
A-DECK
 10
6.143
 20
1.163
 30
0.0
 11
11.143
 21
1.163
 31
0.0
  0
LINE
  8
A-DECK
 10
11.143
 20
1.163
 30
0.0
 11
11.143
 21
-1.337
 31
0.0
  0
LINE
  8
A-DECK
 10
11.143
 20
-1.337
 30
0.0
 11
6.143
 21
-1.337
 31
0.0
  0
LINE
  8
A-DECK
 10
6.143
 20
-1.337
 30
0.0
 11
6.143
 21
1.163
 31
0.0
  0
TEXT
  8
A-TEXT
 10
8.643
 20
-0.087
 30
0.0
 40
0.220
  1
Outdoor Dining
 50
0.0
  0
CIRCLE
  8
A-STILT
 10
6.143
 20
22.143
 30
0.0
 40
0.150
  0
LINE
  8
A-STILT
 10
5.893
 20
22.143
 30
0.0
 11
6.393
 21
22.143
 31
0.0
  0
LINE
  8
A-STILT
 10
6.143
 20
21.893
 30
0.0
 11
6.143
 21
22.393
 31
0.0
  0
CIRCLE
  8
A-STILT
 10
9.143
 20
22.143
 30
0.0
 40
0.150
  0
LINE
  8
A-STILT
 10
8.893
 20
22.143
 30
0.0
 11
9.393
 21
22.143
 31
0.0
  0
LINE
  8
A-STILT
 10
9.143
 20
21.893
 30
0.0
 11
9.143
 21
22.393
 31
0.0
  0
CIRCLE
  8
A-STILT
 10
13.463
 20
22.143
 30
0.0
 40
0.150
  0
LINE
  8
A-STILT
 10
13.213
 20
22.143
 30
0.0
 11
13.713
 21
22.143
 31
0.0
  0
LINE
  8
A-STILT
 10
13.463
 20
21.893
 30
0.0
 11
13.463
 21
22.393
 31
0.0
  0
CIRCLE
  8
A-STILT
 10
18.343
 20
22.143
 30
0.0
 40
0.150
  0
LINE
  8
A-STILT
 10
18.093
 20
22.143
 30
0.0
 11
18.593
 21
22.143
 31
0.0
  0
LINE
  8
A-STILT
 10
18.343
 20
21.893
 30
0.0
 11
18.343
 21
22.393
 31
0.0
  0
CIRCLE
  8
A-STILT
 10
6.143
 20
19.703
 30
0.0
 40
0.150
  0
LINE
  8
A-STILT
 10
5.893
 20
19.703
 30
0.0
 11
6.393
 21
19.703
 31
0.0
  0
LINE
  8
A-STILT
 10
6.143
 20
19.453
 30
0.0
 11
6.143
 21
19.953
 31
0.0
  0
CIRCLE
  8
A-STILT
 10
9.143
 20
19.703
 30
0.0
 40
0.150
  0
LINE
  8
A-STILT
 10
8.893
 20
19.703
 30
0.0
 11
9.393
 21
19.703
 31
0.0
  0
LINE
  8
A-STILT
 10
9.143
 20
19.453
 30
0.0
 11
9.143
 21
19.953
 31
0.0
  0
CIRCLE
  8
A-STILT
 10
13.463
 20
19.703
 30
0.0
 40
0.150
  0
LINE
  8
A-STILT
 10
13.213
 20
19.703
 30
0.0
 11
13.713
 21
19.703
 31
0.0
  0
LINE
  8
A-STILT
 10
13.463
 20
19.453
 30
0.0
 11
13.463
 21
19.953
 31
0.0
  0
CIRCLE
  8
A-STILT
 10
18.343
 20
19.703
 30
0.0
 40
0.150
  0
LINE
  8
A-STILT
 10
18.093
 20
19.703
 30
0.0
 11
18.593
 21
19.703
 31
0.0
  0
LINE
  8
A-STILT
 10
18.343
 20
19.453
 30
0.0
 11
18.343
 21
19.953
 31
0.0
  0
CIRCLE
  8
A-STILT
 10
6.143
 20
17.263
 30
0.0
 40
0.150
  0
LINE
  8
A-STILT
 10
5.893
 20
17.263
 30
0.0
 11
6.393
 21
17.263
 31
0.0
  0
LINE
  8
A-STILT
 10
6.143
 20
17.013
 30
0.0
 11
6.143
 21
17.513
 31
0.0
  0
CIRCLE
  8
A-STILT
 10
11.023
 20
17.263
 30
0.0
 40
0.150
  0
LINE
  8
A-STILT
 10
10.773
 20
17.263
 30
0.0
 11
11.273
 21
17.263
 31
0.0
  0
LINE
  8
A-STILT
 10
11.023
 20
17.013
 30
0.0
 11
11.023
 21
17.513
 31
0.0
  0
CIRCLE
  8
A-STILT
 10
13.463
 20
17.263
 30
0.0
 40
0.150
  0
LINE
  8
A-STILT
 10
13.213
 20
17.263
 30
0.0
 11
13.713
 21
17.263
 31
0.0
  0
LINE
  8
A-STILT
 10
13.463
 20
17.013
 30
0.0
 11
13.463
 21
17.513
 31
0.0
  0
CIRCLE
  8
A-STILT
 10
18.343
 20
17.263
 30
0.0
 40
0.150
  0
LINE
  8
A-STILT
 10
18.093
 20
17.263
 30
0.0
 11
18.593
 21
17.263
 31
0.0
  0
LINE
  8
A-STILT
 10
18.343
 20
17.013
 30
0.0
 11
18.343
 21
17.513
 31
0.0
  0
CIRCLE
  8
A-STILT
 10
6.143
 20
11.097
 30
0.0
 40
0.150
  0
LINE
  8
A-STILT
 10
5.893
 20
11.097
 30
0.0
 11
6.393
 21
11.097
 31
0.0
  0
LINE
  8
A-STILT
 10
6.143
 20
10.847
 30
0.0
 11
6.143
 21
11.347
 31
0.0
  0
CIRCLE
  8
A-STILT
 10
11.023
 20
11.097
 30
0.0
 40
0.150
  0
LINE
  8
A-STILT
 10
10.773
 20
11.097
 30
0.0
 11
11.273
 21
11.097
 31
0.0
  0
LINE
  8
A-STILT
 10
11.023
 20
10.847
 30
0.0
 11
11.023
 21
11.347
 31
0.0
  0
CIRCLE
  8
A-STILT
 10
13.463
 20
11.097
 30
0.0
 40
0.150
  0
LINE
  8
A-STILT
 10
13.213
 20
11.097
 30
0.0
 11
13.713
 21
11.097
 31
0.0
  0
LINE
  8
A-STILT
 10
13.463
 20
10.847
 30
0.0
 11
13.463
 21
11.347
 31
0.0
  0
CIRCLE
  8
A-STILT
 10
18.343
 20
11.097
 30
0.0
 40
0.150
  0
LINE
  8
A-STILT
 10
18.093
 20
11.097
 30
0.0
 11
18.593
 21
11.097
 31
0.0
  0
LINE
  8
A-STILT
 10
18.343
 20
10.847
 30
0.0
 11
18.343
 21
11.347
 31
0.0
  0
CIRCLE
  8
A-STILT
 10
6.143
 20
5.063
 30
0.0
 40
0.150
  0
LINE
  8
A-STILT
 10
5.893
 20
5.063
 30
0.0
 11
6.393
 21
5.063
 31
0.0
  0
LINE
  8
A-STILT
 10
6.143
 20
4.813
 30
0.0
 11
6.143
 21
5.313
 31
0.0
  0
CIRCLE
  8
A-STILT
 10
11.023
 20
5.063
 30
0.0
 40
0.150
  0
LINE
  8
A-STILT
 10
10.773
 20
5.063
 30
0.0
 11
11.273
 21
5.063
 31
0.0
  0
LINE
  8
A-STILT
 10
11.023
 20
4.813
 30
0.0
 11
11.023
 21
5.313
 31
0.0
  0
CIRCLE
  8
A-STILT
 10
13.463
 20
5.063
 30
0.0
 40
0.150
  0
LINE
  8
A-STILT
 10
13.213
 20
5.063
 30
0.0
 11
13.713
 21
5.063
 31
0.0
  0
LINE
  8
A-STILT
 10
13.463
 20
4.813
 30
0.0
 11
13.463
 21
5.313
 31
0.0
  0
CIRCLE
  8
A-STILT
 10
18.343
 20
5.063
 30
0.0
 40
0.150
  0
LINE
  8
A-STILT
 10
18.093
 20
5.063
 30
0.0
 11
18.593
 21
5.063
 31
0.0
  0
LINE
  8
A-STILT
 10
18.343
 20
4.813
 30
0.0
 11
18.343
 21
5.313
 31
0.0
  0
LINE
  8
A-FURN
 10
6.443
 20
15.463
 30
0.0
 11
8.243
 21
15.463
 31
0.0
  0
LINE
  8
A-FURN
 10
8.243
 20
15.463
 30
0.0
 11
8.243
 21
13.263
 31
0.0
  0
LINE
  8
A-FURN
 10
8.243
 20
13.263
 30
0.0
 11
6.443
 21
13.263
 31
0.0
  0
LINE
  8
A-FURN
 10
6.443
 20
13.263
 30
0.0
 11
6.443
 21
15.463
 31
0.0
  0
LINE
  8
A-FURN
 10
16.203
 20
15.463
 30
0.0
 11
17.803
 21
15.463
 31
0.0
  0
LINE
  8
A-FURN
 10
17.803
 20
15.463
 30
0.0
 11
17.803
 21
13.363
 31
0.0
  0
LINE
  8
A-FURN
 10
17.803
 20
13.363
 30
0.0
 11
16.203
 21
13.363
 31
0.0
  0
LINE
  8
A-FURN
 10
16.203
 20
13.363
 30
0.0
 11
16.203
 21
15.463
 31
0.0
  0
LINE
  8
A-FURN
 10
8.543
 20
19.103
 30
0.0
 11
10.943
 21
19.103
 31
0.0
  0
LINE
  8
A-FURN
 10
10.943
 20
19.103
 30
0.0
 11
10.943
 21
18.103
 31
0.0
  0
LINE
  8
A-FURN
 10
10.943
 20
18.103
 30
0.0
 11
8.543
 21
18.103
 31
0.0
  0
LINE
  8
A-FURN
 10
8.543
 20
18.103
 30
0.0
 11
8.543
 21
19.103
 31
0.0
  0
LINE
  8
A-KITCHEN
 10
13.543
 20
18.063
 30
0.0
 11
16.743
 21
18.063
 31
0.0
  0
LINE
  8
A-KITCHEN
 10
16.743
 20
18.063
 30
0.0
 11
16.743
 21
17.363
 31
0.0
  0
LINE
  8
A-FURN
 10
12.943
 20
20.843
 30
0.0
 11
14.743
 21
20.843
 31
0.0
  0
LINE
  8
A-FURN
 10
14.743
 20
20.843
 30
0.0
 11
14.743
 21
20.143
 31
0.0
  0
LINE
  8
A-FURN
 10
14.743
 20
20.143
 30
0.0
 11
12.943
 21
20.143
 31
0.0
  0
LINE
  8
A-FURN
 10
12.943
 20
20.143
 30
0.0
 11
12.943
 21
20.843
 31
0.0
  0
TEXT
  8
A-TEXT
 10
7.643
 20
21.045
 30
0.0
 40
0.250
  1
ENTRY FOYER
 50
0.0
  0
TEXT
  8
A-TEXT
 10
7.643
 20
20.695
 30
0.0
 40
0.180
  1
100 sq.ft
 50
0.0
  0
TEXT
  8
A-TEXT
 10
13.943
 20
21.045
 30
0.0
 40
0.250
  1
LIVING
 50
0.0
  0
TEXT
  8
A-TEXT
 10
13.943
 20
20.695
 30
0.0
 40
0.180
  1
280 sq.ft
 50
0.0
  0
TEXT
  8
A-TEXT
 10
9.643
 20
18.605
 30
0.0
 40
0.250
  1
DINING
 50
0.0
  0
TEXT
  8
A-TEXT
 10
9.643
 20
18.255
 30
0.0
 40
0.180
  1
200 sq.ft
 50
0.0
  0
TEXT
  8
A-TEXT
 10
15.343
 20
18.605
 30
0.0
 40
0.250
  1
OPEN KITCHEN
 50
0.0
  0
TEXT
  8
A-TEXT
 10
15.343
 20
18.255
 30
0.0
 40
0.180
  1
200 sq.ft
 50
0.0
  0
TEXT
  8
A-TEXT
 10
7.363
 20
11.163
 30
0.0
 40
0.250
  1
MASTER BEDROOM
 50
-90.0
  0
TEXT
  8
A-TEXT
 10
7.013
 20
11.163
 30
0.0
 40
0.180
  1
300 sq.ft
 50
-90.0
  0
TEXT
  8
A-TEXT
 10
9.803
 20
15.763
 30
0.0
 40
0.250
  1
M.WR
 50
-90.0
  0
TEXT
  8
A-TEXT
 10
9.453
 20
15.763
 30
0.0
 40
0.180
  1
70 sq.ft
 50
-90.0
  0
TEXT
  8
A-TEXT
 10
9.803
 20
12.263
 30
0.0
 40
0.250
  1
MASTER BATH
 50
-90.0
  0
TEXT
  8
A-TEXT
 10
9.453
 20
12.263
 30
0.0
 40
0.180
  1
140 sq.ft
 50
-90.0
  0
TEXT
  8
A-TEXT
 10
9.803
 20
7.963
 30
0.0
 40
0.250
  1
MASTER LOUNGE
 50
-90.0
  0
TEXT
  8
A-TEXT
 10
9.453
 20
7.963
 30
0.0
 40
0.180
  1
110 sq.ft
 50
-90.0
  0
TEXT
  8
A-TEXT
 10
17.123
 20
11.163
 30
0.0
 40
0.250
  1
BEDROOM 2
 50
-90.0
  0
TEXT
  8
A-TEXT
 10
16.773
 20
11.163
 30
0.0
 40
0.180
  1
280 sq.ft
 50
-90.0
  0
TEXT
  8
A-TEXT
 10
14.683
 20
15.463
 30
0.0
 40
0.250
  1
BR2 BATH
 50
-90.0
  0
TEXT
  8
A-TEXT
 10
14.333
 20
15.463
 30
0.0
 40
0.180
  1
110 sq.ft
 50
-90.0
  0
TEXT
  8
A-TEXT
 10
14.683
 20
10.763
 30
0.0
 40
0.250
  1
STUDY / LOUNGE
 50
-90.0
  0
TEXT
  8
A-TEXT
 10
14.333
 20
10.763
 30
0.0
 40
0.180
  1
140 sq.ft
 50
-90.0
  0
TEXT
  8
A-TEXT
 10
14.683
 20
6.763
 30
0.0
 40
0.250
  1
PWD
 50
-90.0
  0
TEXT
  8
A-TEXT
 10
14.333
 20
6.763
 30
0.0
 40
0.180
  1
50 sq.ft
 50
-90.0
  0
TEXT
  8
A-TEXT
 10
21.063
 20
13.763
 30
0.0
 40
0.250
  1
UTILITY
 50
-90.0
  0
TEXT
  8
A-TEXT
 10
20.713
 20
13.763
 30
0.0
 40
0.180
  1
90 sq.ft
 50
-90.0
  0
TEXT
  8
A-TEXT
 10
21.063
 20
10.763
 30
0.0
 40
0.250
  1
STORE
 50
-90.0
  0
TEXT
  8
A-TEXT
 10
20.713
 20
10.763
 30
0.0
 40
0.180
  1
70 sq.ft
 50
-90.0
  0
TEXT
  8
A-NORTH
 10
3.500
 20
4.500
 30
0.0
 40
0.300
  1
NORTH
 50
0.0
  0
LINE
  8
A-NORTH
 10
3.500
 20
4.900
 30
0.0
 11
3.500
 21
5.800
 31
0.0
  0
LINE
  8
A-NORTH
 10
3.300
 20
5.500
 30
0.0
 11
3.500
 21
5.800
 31
0.0
  0
LINE
  8
A-NORTH
 10
3.700
 20
5.500
 30
0.0
 11
3.500
 21
5.800
 31
0.0
  0
TEXT
  8
A-TEXT
 10
22.500
 20
6.800
 30
0.0
 40
0.350
  1
RESERVA VERDE GOA
 50
0.0
  0
TEXT
  8
A-TEXT
 10
22.500
 20
6.300
 30
0.0
 40
0.250
  1
2BHK COMPACT FOREST ESTATE PLAN
 50
0.0
  0
TEXT
  8
A-TEXT
 10
22.500
 20
5.800
 30
0.0
 40
0.200
  1
Conceptual CAD Floor Plan - Revision R0
 50
0.0
  0
TEXT
  8
A-TEXT
 10
22.500
 20
5.400
 30
0.0
 40
0.180
  1
Date: May 30, 2026
 50
0.0
  0
TEXT
  8
A-TEXT
 10
22.500
 20
5.000
 30
0.0
 40
0.180
  1
Scale: 1:100 @ A3
 50
0.0
  0
TEXT
  8
A-DISCLAIMER
 10
7.500
 20
4.900
 30
0.0
 40
0.140
  1
CONCEPTUAL HNI PRESENTATION DRAWING - NOT FOR CONSTRUCTION
 50
0.0
  0
TEXT
  8
A-DISCLAIMER
 10
7.500
 20
4.650
 30
0.0
 40
0.140
  1
All dimensions, layouts, areas, stilt pile centers, structural containers, and specifications
 50
0.0
  0
TEXT
  8
A-DISCLAIMER
 10
7.500
 20
4.400
 30
0.0
 40
0.140
  1
are indicative concepts only. Subject to final topographic survey, structural analysis,
 50
0.0
  0
TEXT
  8
A-DISCLAIMER
 10
7.500
 20
4.150
 30
0.0
 40
0.140
  1
TCP planning, RERA guidelines, environmental certifications, and statutory authority approvals.
 50
0.0
  0
TEXT
  8
A-DISCLAIMER
 10
7.500
 20
3.900
 30
0.0
 40
0.140
  1
CAD Drafter: AutoCAD Real Estate Integration Specialist.
 50
0.0
  0
ENDSEC
  0
EOF