  0
SECTION
  2
HEADER
  9
$ACADVER
  1
AC1009
  0
ENDSEC
  0
SECTION
  2
TABLES
  0
TABLE
  2
LAYER
 70
16
  0
LAYER
  2
A-WALL-EXT
 70
0
 62
7
  6
CONTINUOUS
  0
LAYER
  2
A-WALL-INT
 70
0
 62
8
  6
CONTINUOUS
  0
LAYER
  2
A-STILT
 70
0
 62
1
  6
CONTINUOUS
  0
LAYER
  2
A-DOOR
 70
0
 62
9
  6
CONTINUOUS
  0
LAYER
  2
A-WINDOW
 70
0
 62
4
  6
CONTINUOUS
  0
LAYER
  2
A-FURN
 70
0
 62
9
  6
CONTINUOUS
  0
LAYER
  2
A-TEXT
 70
0
 62
7
  6
CONTINUOUS
  0
LAYER
  2
A-DIMS
 70
0
 62
5
  6
CONTINUOUS
  0
LAYER
  2
A-DECK
 70
0
 62
8
  6
CONTINUOUS
  0
LAYER
  2
A-WET
 70
0
 62
4
  6
CONTINUOUS
  0
LAYER
  2
A-KITCHEN
 70
0
 62
8
  6
CONTINUOUS
  0
LAYER
  2
A-UTILITY
 70
0
 62
8
  6
CONTINUOUS
  0
LAYER
  2
A-LANDSCAPE
 70
0
 62
9
  6
CONTINUOUS
  0
LAYER
  2
A-PATH
 70
0
 62
8
  6
CONTINUOUS
  0
LAYER
  2
A-NORTH
 70
0
 62
7
  6
CONTINUOUS
  0
LAYER
  2
A-DISCLAIMER
 70
0
 62
8
  6
CONTINUOUS
  0
ENDTAB
  0
ENDSEC
  0
SECTION
  2
ENTITIES
  0
LINE
  8
A-WALL-EXT
 10
0.000
 20
12.571
 30
0.0
 11
15.143
 21
12.571
 31
0.0
  0
LINE
  8
A-WALL-EXT
 10
15.143
 20
12.571
 30
0.0
 11
15.143
 21
7.714
 31
0.0
  0
LINE
  8
A-WALL-EXT
 10
15.143
 20
7.714
 30
0.0
 11
10.286
 21
7.714
 31
0.0
  0
LINE
  8
A-WALL-EXT
 10
10.286
 20
7.714
 30
0.0
 11
10.286
 21
0.000
 31
0.0
  0
LINE
  8
A-WALL-EXT
 10
10.286
 20
0.000
 30
0.0
 11
0.000
 21
0.000
 31
0.0
  0
LINE
  8
A-WALL-EXT
 10
0.000
 20
0.000
 30
0.0
 11
0.000
 21
12.571
 31
0.0
  0
LINE
  8
A-WALL-EXT
 10
0.143
 20
12.429
 30
0.0
 11
15.000
 21
12.429
 31
0.0
  0
LINE
  8
A-WALL-EXT
 10
15.000
 20
12.429
 30
0.0
 11
15.000
 21
7.857
 31
0.0
  0
LINE
  8
A-WALL-EXT
 10
15.000
 20
7.857
 30
0.0
 11
10.429
 21
7.857
 31
0.0
  0
LINE
  8
A-WALL-EXT
 10
10.429
 20
7.857
 30
0.0
 11
10.429
 21
0.143
 31
0.0
  0
LINE
  8
A-WALL-EXT
 10
10.429
 20
0.143
 30
0.0
 11
0.143
 21
0.143
 31
0.0
  0
LINE
  8
A-WALL-EXT
 10
0.143
 20
0.143
 30
0.0
 11
0.143
 21
12.429
 31
0.0
  0
LINE
  8
A-WALL-INT
 10
11.286
 20
12.571
 30
0.0
 11
11.286
 21
10.143
 31
0.0
  0
LINE
  8
A-WALL-INT
 10
11.286
 20
10.143
 30
0.0
 11
15.143
 21
10.143
 31
0.0
  0
LINE
  8
A-WALL-INT
 10
7.143
 20
7.714
 30
0.0
 11
10.286
 21
7.714
 31
0.0
  0
LINE
  8
A-WALL-INT
 10
0.000
 20
3.857
 30
0.0
 11
7.143
 21
3.857
 31
0.0
  0
LINE
  8
A-WALL-INT
 10
3.429
 20
0.000
 30
0.0
 11
3.429
 21
3.857
 31
0.0
  0
LINE
  8
A-WALL-INT
 10
7.143
 20
0.000
 30
0.0
 11
7.143
 21
7.714
 31
0.0
  0
LINE
  8
A-WALL-INT
 10
7.143
 20
5.143
 30
0.0
 11
10.286
 21
5.143
 31
0.0
  0
LINE
  8
A-DECK
 10
-0.857
 20
0.000
 30
0.0
 11
10.286
 21
0.000
 31
0.0
  0
LINE
  8
A-DECK
 10
10.286
 20
0.000
 30
0.0
 11
10.286
 21
7.714
 31
0.0
  0
LINE
  8
A-DECK
 10
10.286
 20
7.714
 30
0.0
 11
15.143
 21
7.714
 31
0.0
  0
LINE
  8
A-DECK
 10
15.143
 20
7.714
 30
0.0
 11
15.143
 21
12.571
 31
0.0
  0
LINE
  8
A-DECK
 10
15.143
 20
12.571
 30
0.0
 11
16.571
 21
12.571
 31
0.0
  0
LINE
  8
A-DECK
 10
16.571
 20
12.571
 30
0.0
 11
16.571
 21
6.000
 31
0.0
  0
LINE
  8
A-DECK
 10
16.571
 20
6.000
 30
0.0
 11
12.000
 21
6.000
 31
0.0
  0
LINE
  8
A-DECK
 10
12.000
 20
6.000
 30
0.0
 11
12.000
 21
-1.714
 31
0.0
  0
LINE
  8
A-DECK
 10
12.000
 20
-1.714
 30
0.0
 11
-0.857
 21
-1.714
 31
0.0
  0
LINE
  8
A-DECK
 10
-0.857
 20
-1.714
 30
0.0
 11
-0.857
 21
0.000
 31
0.0
  0
LINE
  8
A-WET
 10
12.714
 20
5.286
 30
0.0
 11
16.000
 21
5.286
 31
0.0
  0
LINE
  8
A-WET
 10
16.000
 20
5.286
 30
0.0
 11
16.000
 21
2.714
 31
0.0
  0
LINE
  8
A-WET
 10
16.000
 20
2.714
 30
0.0
 11
12.714
 21
2.714
 31
0.0
  0
LINE
  8
A-WET
 10
12.714
 20
2.714
 30
0.0
 11
12.714
 21
5.286
 31
0.0
  0
LINE
  8
A-LANDSCAPE
 10
0.000
 20
10.143
 30
0.0
 11
7.143
 21
10.143
 31
0.0
  0
LINE
  8
A-LANDSCAPE
 10
7.143
 20
10.143
 30
0.0
 11
7.143
 21
7.714
 31
0.0
  0
LINE
  8
A-LANDSCAPE
 10
7.143
 20
7.714
 30
0.0
 11
0.000
 21
7.714
 31
0.0
  0
LINE
  8
A-LANDSCAPE
 10
0.000
 20
7.714
 30
0.0
 11
0.000
 21
10.143
 31
0.0
  0
LINE
  8
A-KITCHEN
 10
11.571
 20
10.857
 30
0.0
 11
14.857
 21
10.857
 31
0.0
  0
LINE
  8
A-KITCHEN
 10
11.571
 20
10.857
 30
0.0
 11
11.571
 21
10.571
 31
0.0
  0
LINE
  8
A-FURN
 10
6.800
 20
5.100
 30
0.0
 11
8.600
 21
5.100
 31
0.0
  0
LINE
  8
A-FURN
 10
8.600
 20
5.100
 30
0.0
 11
8.600
 21
7.100
 31
0.0
  0
LINE
  8
A-FURN
 10
8.600
 20
7.100
 30
0.0
 11
6.800
 21
7.100
 31
0.0
  0
LINE
  8
A-FURN
 10
6.800
 20
7.100
 30
0.0
 11
6.800
 21
5.100
 31
0.0
  0
LINE
  8
A-FURN
 10
1.800
 20
5.100
 30
0.0
 11
3.600
 21
5.100
 31
0.0
  0
LINE
  8
A-FURN
 10
3.600
 20
5.100
 30
0.0
 11
3.600
 21
7.100
 31
0.0
  0
LINE
  8
A-FURN
 10
3.600
 20
7.100
 30
0.0
 11
1.800
 21
7.100
 31
0.0
  0
LINE
  8
A-FURN
 10
1.800
 20
7.100
 30
0.0
 11
1.800
 21
5.100
 31
0.0
  0
LINE
  8
A-FURN
 10
1.800
 20
1.100
 30
0.0
 11
3.600
 21
1.100
 31
0.0
  0
LINE
  8
A-FURN
 10
3.600
 20
1.100
 30
0.0
 11
3.600
 21
3.100
 31
0.0
  0
LINE
  8
A-FURN
 10
3.600
 20
3.100
 30
0.0
 11
1.800
 21
3.100
 31
0.0
  0
LINE
  8
A-FURN
 10
1.800
 20
3.100
 30
0.0
 11
1.800
 21
1.100
 31
0.0
  0
LINE
  8
A-FURN
 10
5.000
 20
1.100
 30
0.0
 11
6.800
 21
1.100
 31
0.0
  0
LINE
  8
A-FURN
 10
6.800
 20
1.100
 30
0.0
 11
6.800
 21
3.100
 31
0.0
  0
LINE
  8
A-FURN
 10
6.800
 20
3.100
 30
0.0
 11
5.000
 21
3.100
 31
0.0
  0
LINE
  8
A-FURN
 10
5.000
 20
3.100
 30
0.0
 11
5.000
 21
1.100
 31
0.0
  0
LINE
  8
A-WINDOW
 10
4.000
 20
12.571
 30
0.0
 11
11.000
 21
12.571
 31
0.0
  0
LINE
  8
A-WINDOW
 10
4.000
 20
10.143
 30
0.0
 11
11.000
 21
10.143
 31
0.0
  0
LINE
  8
A-WINDOW
 10
0.000
 20
11.429
 30
0.0
 11
0.000
 21
10.857
 31
0.0
  0
LINE
  8
A-WINDOW
 10
7.286
 20
7.714
 30
0.0
 11
9.857
 21
7.714
 31
0.0
  0
LINE
  8
A-DOOR
 10
0.000
 20
11.429
 30
0.0
 11
0.000
 21
12.000
 31
0.0
  0
LINE
  8
A-DOOR
 10
7.143
 20
6.000
 30
0.0
 11
8.143
 21
6.000
 31
0.0
  0
CIRCLE
  8
A-STILT
 10
0.000
 20
12.571
 30
0.0
 40
0.150
  0
LINE
  8
A-STILT
 10
-0.250
 20
12.571
 30
0.0
 11
0.250
 21
12.571
 31
0.0
  0
LINE
  8
A-STILT
 10
0.000
 20
12.321
 30
0.0
 11
0.000
 21
12.821
 31
0.0
  0
CIRCLE
  8
A-STILT
 10
3.714
 20
12.571
 30
0.0
 40
0.150
  0
LINE
  8
A-STILT
 10
3.464
 20
12.571
 30
0.0
 11
3.964
 21
12.571
 31
0.0
  0
LINE
  8
A-STILT
 10
3.714
 20
12.321
 30
0.0
 11
3.714
 21
12.821
 31
0.0
  0
CIRCLE
  8
A-STILT
 10
7.429
 20
12.571
 30
0.0
 40
0.150
  0
LINE
  8
A-STILT
 10
7.179
 20
12.571
 30
0.0
 11
7.679
 21
12.571
 31
0.0
  0
LINE
  8
A-STILT
 10
7.429
 20
12.321
 30
0.0
 11
7.429
 21
12.821
 31
0.0
  0
CIRCLE
  8
A-STILT
 10
11.286
 20
12.571
 30
0.0
 40
0.150
  0
LINE
  8
A-STILT
 10
11.036
 20
12.571
 30
0.0
 11
11.536
 21
12.571
 31
0.0
  0
LINE
  8
A-STILT
 10
11.286
 20
12.321
 30
0.0
 11
11.286
 21
12.821
 31
0.0
  0
CIRCLE
  8
A-STILT
 10
15.143
 20
12.571
 30
0.0
 40
0.150
  0
LINE
  8
A-STILT
 10
14.893
 20
12.571
 30
0.0
 11
15.393
 21
12.571
 31
0.0
  0
LINE
  8
A-STILT
 10
15.143
 20
12.321
 30
0.0
 11
15.143
 21
12.821
 31
0.0
  0
CIRCLE
  8
A-STILT
 10
0.000
 20
10.143
 30
0.0
 40
0.150
  0
LINE
  8
A-STILT
 10
-0.250
 20
10.143
 30
0.0
 11
0.250
 21
10.143
 31
0.0
  0
LINE
  8
A-STILT
 10
0.000
 20
9.893
 30
0.0
 11
0.000
 21
10.393
 31
0.0
  0
CIRCLE
  8
A-STILT
 10
3.714
 20
10.143
 30
0.0
 40
0.150
  0
LINE
  8
A-STILT
 10
3.464
 20
10.143
 30
0.0
 11
3.964
 21
10.143
 31
0.0
  0
LINE
  8
A-STILT
 10
3.714
 20
9.893
 30
0.0
 11
3.714
 21
10.393
 31
0.0
  0
CIRCLE
  8
A-STILT
 10
7.429
 20
10.143
 30
0.0
 40
0.150
  0
LINE
  8
A-STILT
 10
7.179
 20
10.143
 30
0.0
 11
7.679
 21
10.143
 31
0.0
  0
LINE
  8
A-STILT
 10
7.429
 20
9.893
 30
0.0
 11
7.429
 21
10.393
 31
0.0
  0
CIRCLE
  8
A-STILT
 10
11.286
 20
10.143
 30
0.0
 40
0.150
  0
LINE
  8
A-STILT
 10
11.036
 20
10.143
 30
0.0
 11
11.536
 21
10.143
 31
0.0
  0
LINE
  8
A-STILT
 10
11.286
 20
9.893
 30
0.0
 11
11.286
 21
10.393
 31
0.0
  0
CIRCLE
  8
A-STILT
 10
15.143
 20
10.143
 30
0.0
 40
0.150
  0
LINE
  8
A-STILT
 10
14.893
 20
10.143
 30
0.0
 11
15.393
 21
10.143
 31
0.0
  0
LINE
  8
A-STILT
 10
15.143
 20
9.893
 30
0.0
 11
15.143
 21
10.393
 31
0.0
  0
CIRCLE
  8
A-STILT
 10
11.286
 20
4.857
 30
0.0
 40
0.150
  0
LINE
  8
A-STILT
 10
11.036
 20
4.857
 30
0.0
 11
11.536
 21
4.857
 31
0.0
  0
LINE
  8
A-STILT
 10
11.286
 20
4.607
 30
0.0
 11
11.286
 21
5.107
 31
0.0
  0
CIRCLE
  8
A-STILT
 10
15.143
 20
4.857
 30
0.0
 40
0.150
  0
LINE
  8
A-STILT
 10
14.893
 20
4.857
 30
0.0
 11
15.393
 21
4.857
 31
0.0
  0
LINE
  8
A-STILT
 10
15.143
 20
4.607
 30
0.0
 11
15.143
 21
5.107
 31
0.0
  0
CIRCLE
  8
A-STILT
 10
7.143
 20
4.857
 30
0.0
 40
0.150
  0
LINE
  8
A-STILT
 10
6.893
 20
4.857
 30
0.0
 11
7.393
 21
4.857
 31
0.0
  0
LINE
  8
A-STILT
 10
7.143
 20
4.607
 30
0.0
 11
7.143
 21
5.107
 31
0.0
  0
CIRCLE
  8
A-STILT
 10
10.286
 20
4.857
 30
0.0
 40
0.150
  0
LINE
  8
A-STILT
 10
10.036
 20
4.857
 30
0.0
 11
10.536
 21
4.857
 31
0.0
  0
LINE
  8
A-STILT
 10
10.286
 20
4.607
 30
0.0
 11
10.286
 21
5.107
 31
0.0
  0
CIRCLE
  8
A-STILT
 10
0.000
 20
4.857
 30
0.0
 40
0.150
  0
LINE
  8
A-STILT
 10
-0.250
 20
4.857
 30
0.0
 11
0.250
 21
4.857
 31
0.0
  0
LINE
  8
A-STILT
 10
0.000
 20
4.607
 30
0.0
 11
0.000
 21
5.107
 31
0.0
  0
CIRCLE
  8
A-STILT
 10
7.143
 20
6.571
 30
0.0
 40
0.150
  0
LINE
  8
A-STILT
 10
6.893
 20
6.571
 30
0.0
 11
7.393
 21
6.571
 31
0.0
  0
LINE
  8
A-STILT
 10
7.143
 20
6.321
 30
0.0
 11
7.143
 21
6.821
 31
0.0
  0
CIRCLE
  8
A-STILT
 10
10.286
 20
6.571
 30
0.0
 40
0.150
  0
LINE
  8
A-STILT
 10
10.036
 20
6.571
 30
0.0
 11
10.536
 21
6.571
 31
0.0
  0
LINE
  8
A-STILT
 10
10.286
 20
6.321
 30
0.0
 11
10.286
 21
6.821
 31
0.0
  0
CIRCLE
  8
A-STILT
 10
0.000
 20
3.857
 30
0.0
 40
0.150
  0
LINE
  8
A-STILT
 10
-0.250
 20
3.857
 30
0.0
 11
0.250
 21
3.857
 31
0.0
  0
LINE
  8
A-STILT
 10
0.000
 20
3.607
 30
0.0
 11
0.000
 21
4.107
 31
0.0
  0
CIRCLE
  8
A-STILT
 10
3.429
 20
3.857
 30
0.0
 40
0.150
  0
LINE
  8
A-STILT
 10
3.179
 20
3.857
 30
0.0
 11
3.679
 21
3.857
 31
0.0
  0
LINE
  8
A-STILT
 10
3.429
 20
3.607
 30
0.0
 11
3.429
 21
4.107
 31
0.0
  0
CIRCLE
  8
A-STILT
 10
6.857
 20
3.857
 30
0.0
 40
0.150
  0
LINE
  8
A-STILT
 10
6.607
 20
3.857
 30
0.0
 11
7.107
 21
3.857
 31
0.0
  0
LINE
  8
A-STILT
 10
6.857
 20
3.607
 30
0.0
 11
6.857
 21
4.107
 31
0.0
  0
CIRCLE
  8
A-STILT
 10
7.143
 20
8.571
 30
0.0
 40
0.150
  0
LINE
  8
A-STILT
 10
6.893
 20
8.571
 30
0.0
 11
7.393
 21
8.571
 31
0.0
  0
LINE
  8
A-STILT
 10
7.143
 20
8.321
 30
0.0
 11
7.143
 21
8.821
 31
0.0
  0
CIRCLE
  8
A-STILT
 10
10.286
 20
8.571
 30
0.0
 40
0.150
  0
LINE
  8
A-STILT
 10
10.036
 20
8.571
 30
0.0
 11
10.536
 21
8.571
 31
0.0
  0
LINE
  8
A-STILT
 10
10.286
 20
8.321
 30
0.0
 11
10.286
 21
8.821
 31
0.0
  0
CIRCLE
  8
A-STILT
 10
0.000
 20
0.000
 30
0.0
 40
0.150
  0
LINE
  8
A-STILT
 10
-0.250
 20
0.000
 30
0.0
 11
0.250
 21
0.000
 31
0.0
  0
LINE
  8
A-STILT
 10
0.000
 20
-0.250
 30
0.0
 11
0.000
 21
0.250
 31
0.0
  0
CIRCLE
  8
A-STILT
 10
3.429
 20
0.000
 30
0.0
 40
0.150
  0
LINE
  8
A-STILT
 10
3.179
 20
0.000
 30
0.0
 11
3.679
 21
0.000
 31
0.0
  0
LINE
  8
A-STILT
 10
3.429
 20
-0.250
 30
0.0
 11
3.429
 21
0.250
 31
0.0
  0
CIRCLE
  8
A-STILT
 10
6.857
 20
0.000
 30
0.0
 40
0.150
  0
LINE
  8
A-STILT
 10
6.607
 20
0.000
 30
0.0
 11
7.107
 21
0.000
 31
0.0
  0
LINE
  8
A-STILT
 10
6.857
 20
-0.250
 30
0.0
 11
6.857
 21
0.250
 31
0.0
  0
CIRCLE
  8
A-STILT
 10
10.286
 20
0.000
 30
0.0
 40
0.150
  0
LINE
  8
A-STILT
 10
10.036
 20
0.000
 30
0.0
 11
10.536
 21
0.000
 31
0.0
  0
LINE
  8
A-STILT
 10
10.286
 20
-0.250
 30
0.0
 11
10.286
 21
0.250
 31
0.0
  0
TEXT
  8
A-TEXT
 10
1.857
 20
11.429
 30
0.0
 40
0.250
  1
ENTRANCE FOYER
 50
0.0
  0
TEXT
  8
A-TEXT
 10
1.857
 20
11.079
 30
0.0
 40
0.180
  1
160 sq.ft (14.9 sq.m)
 50
0.0
  0
TEXT
  8
A-TEXT
 10
7.500
 20
11.500
 30
0.0
 40
0.250
  1
GRAND LIVING PAVILION
 50
0.0
  0
TEXT
  8
A-TEXT
 10
7.500
 20
11.150
 30
0.0
 40
0.180
  1
580 sq.ft (53.9 sq.m)
 50
0.0
  0
TEXT
  8
A-TEXT
 10
13.214
 20
11.500
 30
0.0
 40
0.250
  1
CHEF KITCHEN & DINING
 50
0.0
  0
TEXT
  8
A-TEXT
 10
13.214
 20
11.150
 30
0.0
 40
0.180
  1
420 sq.ft (39.0 sq.m)
 50
0.0
  0
TEXT
  8
A-TEXT
 10
8.714
 20
6.571
 30
0.0
 40
0.250
  1
FLAGSHIP MASTER SUITE
 50
0.0
  0
TEXT
  8
A-TEXT
 10
8.714
 20
6.221
 30
0.0
 40
0.180
  1
380 sq.ft (35.3 sq.m)
 50
0.0
  0
TEXT
  8
A-TEXT
 10
8.714
 20
4.000
 30
0.0
 40
0.250
  1
SIGNATURE ENSUITE
 50
0.0
  0
TEXT
  8
A-TEXT
 10
8.714
 20
3.650
 30
0.0
 40
0.180
  1
220 sq.ft (20.4 sq.m)
 50
0.0
  0
TEXT
  8
A-TEXT
 10
3.571
 20
6.000
 30
0.0
 40
0.250
  1
BEDROOM 2 (GUEST)
 50
0.0
  0
TEXT
  8
A-TEXT
 10
3.571
 20
5.650
 30
0.0
 40
0.180
  1
380 sq.ft (35.3 sq.m)
 50
0.0
  0
TEXT
  8
A-TEXT
 10
1.857
 20
2.143
 30
0.0
 40
0.250
  1
BEDROOM 3
 50
0.0
  0
TEXT
  8
A-TEXT
 10
1.857
 20
1.793
 30
0.0
 40
0.180
  1
240 sq.ft (22.3 sq.m)
 50
0.0
  0
TEXT
  8
A-TEXT
 10
5.286
 20
2.143
 30
0.0
 40
0.250
  1
BEDROOM 4
 50
0.0
  0
TEXT
  8
A-TEXT
 10
5.286
 20
1.793
 30
0.0
 40
0.180
  1
240 sq.ft (22.3 sq.m)
 50
0.0
  0
TEXT
  8
A-TEXT
 10
13.214
 20
9.143
 30
0.0
 40
0.250
  1
UTILITY & SOLAR HUB
 50
0.0
  0
TEXT
  8
A-TEXT
 10
13.214
 20
8.793
 30
0.0
 40
0.180
  1
180 sq.ft (16.7 sq.m)
 50
0.0
  0
TEXT
  8
A-TEXT
 10
3.571
 20
9.000
 30
0.0
 40
0.250
  1
WELLNESS COURT
 50
0.0
  0
TEXT
  8
A-TEXT
 10
3.571
 20
8.650
 30
0.0
 40
0.180
  1
420 sq.ft (39.0 sq.m)
 50
0.0
  0
TEXT
  8
A-TEXT
 10
14.357
 20
4.143
 30
0.0
 40
0.250
  1
STILTED PLUNGE POOL
 50
0.0
  0
TEXT
  8
A-TEXT
 10
14.357
 20
3.793
 30
0.0
 40
0.180
  1
220 sq.ft (20.4 sq.m)
 50
0.0
  0
LINE
  8
A-DIMS
 10
0.000
 20
13.800
 30
0.0
 11
15.143
 21
13.800
 31
0.0
  0
CIRCLE
  8
A-DIMS
 10
0.000
 20
13.800
 30
0.0
 40
0.050
  0
CIRCLE
  8
A-DIMS
 10
15.143
 20
13.800
 30
0.0
 40
0.050
  0
TEXT
  8
A-DIMS
 10
7.572
 20
14.050
 30
0.0
 40
0.200
  1
15.14m (49' 8") OVERALL WIDTH
 50
0.0
  0
LINE
  8
A-DIMS
 10
-1.000
 20
0.000
 30
0.0
 11
-1.000
 21
12.571
 31
0.0
  0
CIRCLE
  8
A-DIMS
 10
-1.000
 20
0.000
 30
0.0
 40
0.050
  0
CIRCLE
  8
A-DIMS
 10
-1.000
 20
12.571
 30
0.0
 40
0.050
  0
TEXT
  8
A-DIMS
 10
-1.300
 20
6.285
 30
0.0
 40
0.200
  1
12.57m (41' 3") OVERALL LENGTH
 50
90.0
  0
TEXT
  8
A-DISCLAIMER
 10
1.000
 20
-2.500
 30
0.0
 40
0.160
  1
TECHNICAL COVENANT NOTICE:
 50
0.0
  0
TEXT
  8
A-DISCLAIMER
 10
1.000
 20
-2.750
 30
0.0
 40
0.160
  1
ALL DIMENSIONS AND COORDINATES SHOWN ARE CONCEPTUAL ONLY AND INDICATIVE OF PROPOSED PROGRAM.
 50
0.0
  0
TEXT
  8
A-DISCLAIMER
 10
1.000
 20
-3.000
 30
0.0
 40
0.160
  1
THIS IS NOT AN EXECUTION DRAWING AND IS STRICTLY NOT FOR SITE CONSTRUCTION WORK.
 50
0.0
  0
TEXT
  8
A-DISCLAIMER
 10
1.000
 20
-3.250
 30
0.0
 40
0.160
  1
FINAL DIMENSIONS ARE SUBJECT TO ACTUAL LICENSED LAND SURVEYS, STRUCTURAL Borehole CHECKS,
 50
0.0
  0
TEXT
  8
A-DISCLAIMER
 10
1.000
 20
-3.500
 30
0.0
 40
0.160
  1
AND LOCAL ENVIRONMENT BUFFER / TCP / RERA AUTHORITY STAMPS.
 50
0.0
  0
CIRCLE
  8
A-NORTH
 10
2.000
 20
10.000
 30
0.0
 40
0.400
  0
LINE
  8
A-NORTH
 10
2.000
 20
9.600
 30
0.0
 11
2.000
 21
10.500
 31
0.0
  0
LINE
  8
A-NORTH
 10
2.000
 20
10.500
 30
0.0
 11
1.800
 21
10.100
 31
0.0
  0
LINE
  8
A-NORTH
 10
2.000
 20
10.500
 30
0.0
 11
2.200
 21
10.100
 31
0.0
  0
TEXT
  8
A-NORTH
 10
2.000
 20
10.700
 30
0.0
 40
0.240
  1
N
 50
0.0
  0
LINE
  8
A-TEXT
 10
16.500
 20
0.500
 30
0.0
 11
21.500
 21
0.500
 31
0.0
  0
LINE
  8
A-TEXT
 10
21.500
 20
0.500
 30
0.0
 11
21.500
 21
4.500
 31
0.0
  0
LINE
  8
A-TEXT
 10
21.500
 20
4.500
 30
0.0
 11
16.500
 21
4.500
 31
0.0
  0
LINE
  8
A-TEXT
 10
16.500
 20
4.500
 30
0.0
 11
16.500
 21
0.500
 31
0.0
  0
LINE
  8
A-TEXT
 10
16.500
 20
3.900
 30
0.0
 11
21.500
 21
3.900
 31
0.0
  0
TEXT
  8
A-TEXT
 10
16.800
 20
4.050
 30
0.0
 40
0.260
  1
RESERVA VERDE GOA
 50
0.0
  0
TEXT
  8
A-TEXT
 10
16.800
 20
3.500
 30
0.0
 40
0.180
  1
Model: 4BHK Forest Estate
 50
0.0
  0
TEXT
  8
A-TEXT
 10
16.800
 20
3.200
 30
0.0
 40
0.160
  1
Drawing: Architectural Plan
 50
0.0
  0
TEXT
  8
A-TEXT
 10
16.800
 20
2.900
 30
0.0
 40
0.150
  1
ID: RV-ARCH-4BHK-01
 50
0.0
  0
TEXT
  8
A-TEXT
 10
16.800
 20
2.600
 30
0.0
 40
0.140
  1
Scale: Indicative / 1:100 @ A3
 50
0.0
  0
TEXT
  8
A-TEXT
 10
16.800
 20
2.300
 30
0.0
 40
0.140
  1
Revision: R0
 50
0.0
  0
TEXT
  8
A-TEXT
 10
16.800
 20
2.000
 30
0.0
 40
0.140
  1
Date: May 30, 2026
 50
0.0
  0
TEXT
  8
A-TEXT
 10
16.800
 20
1.700
 30
0.0
 40
0.140
  1
Status: HNI + Architect Review
 50
0.0
  0
TEXT
  8
A-TEXT
 10
16.800
 20
1.300
 30
0.0
 40
0.120
  1
ALL DIMENSIONS IN METERS
 50
0.0
  0
ENDSEC
  0
EOF
