  0
SECTION
  2
HEADER
  9
$ACADVER
  1
AC1009
  0
ENDSEC
  0
SECTION
  2
TABLES
  0
TABLE
  2
LAYER
 70
16
  0
LAYER
  2
A-WALL-EXT
 70
0
 62
3
  6
CONTINUOUS
  0
LAYER
  2
A-WALL-INT
 70
0
 62
4
  6
CONTINUOUS
  0
LAYER
  2
A-STILT
 70
0
 62
1
  6
CONTINUOUS
  0
LAYER
  2
A-DOOR
 70
0
 62
2
  6
CONTINUOUS
  0
LAYER
  2
A-WINDOW
 70
0
 62
5
  6
CONTINUOUS
  0
LAYER
  2
A-FURN
 70
0
 62
9
  6
CONTINUOUS
  0
LAYER
  2
A-TEXT
 70
0
 62
7
  6
CONTINUOUS
  0
LAYER
  2
A-DIMS
 70
0
 62
8
  6
CONTINUOUS
  0
LAYER
  2
A-DECK
 70
0
 62
30
  6
CONTINUOUS
  0
LAYER
  2
A-WET
 70
0
 62
140
  6
CONTINUOUS
  0
LAYER
  2
A-KITCHEN
 70
0
 62
40
  6
CONTINUOUS
  0
LAYER
  2
A-UTILITY
 70
0
 62
6
  6
CONTINUOUS
  0
LAYER
  2
A-LANDSCAPE
 70
0
 62
62
  6
CONTINUOUS
  0
LAYER
  2
A-PATH
 70
0
 62
22
  6
CONTINUOUS
  0
LAYER
  2
A-NORTH
 70
0
 62
7
  6
CONTINUOUS
  0
LAYER
  2
A-DISCLAIMER
 70
0
 62
8
  6
CONTINUOUS
  0
ENDTAB
  0
ENDSEC
  0
SECTION
  2
ENTITIES
  0
LINE
  8
A-WALL-EXT
 10
0.000
 20
12.571
 30
0.0
 11
15.143
 21
12.571
 31
0.0
  0
LINE
  8
A-WALL-EXT
 10
15.143
 20
12.571
 30
0.0
 11
15.143
 21
7.714
 31
0.0
  0
LINE
  8
A-WALL-EXT
 10
15.143
 20
7.714
 30
0.0
 11
10.286
 21
7.714
 31
0.0
  0
LINE
  8
A-WALL-EXT
 10
10.286
 20
7.714
 30
0.0
 11
10.286
 21
0.000
 31
0.0
  0
LINE
  8
A-WALL-EXT
 10
10.286
 20
0.000
 30
0.0
 11
0.000
 21
0.000
 31
0.0
  0
LINE
  8
A-WALL-EXT
 10
0.000
 20
0.000
 30
0.0
 11
0.000
 21
12.571
 31
0.0
  0
LINE
  8
A-WALL-EXT
 10
0.143
 20
12.429
 30
0.0
 11
15.000
 21
12.429
 31
0.0
  0
LINE
  8
A-WALL-EXT
 10
15.000
 20
12.429
 30
0.0
 11
15.000
 21
7.857
 31
0.0
  0
LINE
  8
A-WALL-EXT
 10
15.000
 20
7.857
 30
0.0
 11
10.429
 21
7.857
 31
0.0
  0
LINE
  8
A-WALL-EXT
 10
10.429
 20
7.857
 30
0.0
 11
10.429
 21
0.143
 31
0.0
  0
LINE
  8
A-WALL-EXT
 10
10.429
 20
0.143
 30
0.0
 11
0.143
 21
0.143
 31
0.0
  0
LINE
  8
A-WALL-EXT
 10
0.143
 20
0.143
 30
0.0
 11
0.143
 21
12.429
 31
0.0
  0
LINE
  8
A-WALL-INT
 10
11.286
 20
10.143
 30
0.0
 11
15.143
 21
10.143
 31
0.0
  0
LINE
  8
A-WALL-INT
 10
7.143
 20
5.143
 30
0.0
 11
10.286
 21
5.143
 31
0.0
  0
LINE
  8
A-WALL-INT
 10
0.000
 20
3.857
 30
0.0
 11
7.143
 21
3.857
 31
0.0
  0
LINE
  8
A-WALL-INT
 10
3.429
 20
3.857
 30
0.0
 11
3.429
 21
0.000
 31
0.0
  0
LINE
  8
A-WALL-INT
 10
7.143
 20
7.714
 30
0.0
 11
7.143
 21
2.571
 31
0.0
  0
CIRCLE
  8
A-STILT
 10
0.000
 20
12.571
 30
0.0
 40
0.100
  0
LINE
  8
A-STILT
 10
-0.200
 20
12.571
 30
0.0
 11
0.200
 21
12.571
 31
0.0
  0
LINE
  8
A-STILT
 10
0.000
 20
12.371
 30
0.0
 11
0.000
 21
12.771
 31
0.0
  0
CIRCLE
  8
A-STILT
 10
3.714
 20
12.571
 30
0.0
 40
0.100
  0
LINE
  8
A-STILT
 10
3.514
 20
12.571
 30
0.0
 11
3.914
 21
12.571
 31
0.0
  0
LINE
  8
A-STILT
 10
3.714
 20
12.371
 30
0.0
 11
3.714
 21
12.771
 31
0.0
  0
CIRCLE
  8
A-STILT
 10
7.429
 20
12.571
 30
0.0
 40
0.100
  0
LINE
  8
A-STILT
 10
7.229
 20
12.571
 30
0.0
 11
7.629
 21
12.571
 31
0.0
  0
LINE
  8
A-STILT
 10
7.429
 20
12.371
 30
0.0
 11
7.429
 21
12.771
 31
0.0
  0
CIRCLE
  8
A-STILT
 10
11.286
 20
12.571
 30
0.0
 40
0.100
  0
LINE
  8
A-STILT
 10
11.086
 20
12.571
 30
0.0
 11
11.486
 21
12.571
 31
0.0
  0
LINE
  8
A-STILT
 10
11.286
 20
12.371
 30
0.0
 11
11.286
 21
12.771
 31
0.0
  0
CIRCLE
  8
A-STILT
 10
15.143
 20
12.571
 30
0.0
 40
0.100
  0
LINE
  8
A-STILT
 10
14.943
 20
12.571
 30
0.0
 11
15.343
 21
12.571
 31
0.0
  0
LINE
  8
A-STILT
 10
15.143
 20
12.371
 30
0.0
 11
15.143
 21
12.771
 31
0.0
  0
CIRCLE
  8
A-STILT
 10
0.000
 20
10.143
 30
0.0
 40
0.100
  0
LINE
  8
A-STILT
 10
-0.200
 20
10.143
 30
0.0
 11
0.200
 21
10.143
 31
0.0
  0
LINE
  8
A-STILT
 10
0.000
 20
9.943
 30
0.0
 11
0.000
 21
10.343
 31
0.0
  0
CIRCLE
  8
A-STILT
 10
3.714
 20
10.143
 30
0.0
 40
0.100
  0
LINE
  8
A-STILT
 10
3.514
 20
10.143
 30
0.0
 11
3.914
 21
10.143
 31
0.0
  0
LINE
  8
A-STILT
 10
3.714
 20
9.943
 30
0.0
 11
3.714
 21
10.343
 31
0.0
  0
CIRCLE
  8
A-STILT
 10
7.429
 20
10.143
 30
0.0
 40
0.100
  0
LINE
  8
A-STILT
 10
7.229
 20
10.143
 30
0.0
 11
7.629
 21
10.143
 31
0.0
  0
LINE
  8
A-STILT
 10
7.429
 20
9.943
 30
0.0
 11
7.429
 21
10.343
 31
0.0
  0
CIRCLE
  8
A-STILT
 10
11.286
 20
10.143
 30
0.0
 40
0.100
  0
LINE
  8
A-STILT
 10
11.086
 20
10.143
 30
0.0
 11
11.486
 21
10.143
 31
0.0
  0
LINE
  8
A-STILT
 10
11.286
 20
9.943
 30
0.0
 11
11.286
 21
10.343
 31
0.0
  0
CIRCLE
  8
A-STILT
 10
15.143
 20
10.143
 30
0.0
 40
0.100
  0
LINE
  8
A-STILT
 10
14.943
 20
10.143
 30
0.0
 11
15.343
 21
10.143
 31
0.0
  0
LINE
  8
A-STILT
 10
15.143
 20
9.943
 30
0.0
 11
15.143
 21
10.343
 31
0.0
  0
CIRCLE
  8
A-STILT
 10
11.286
 20
7.714
 30
0.0
 40
0.100
  0
LINE
  8
A-STILT
 10
11.086
 20
7.714
 30
0.0
 11
11.486
 21
7.714
 31
0.0
  0
LINE
  8
A-STILT
 10
11.286
 20
7.514
 30
0.0
 11
11.286
 21
7.914
 31
0.0
  0
CIRCLE
  8
A-STILT
 10
15.143
 20
7.714
 30
0.0
 40
0.100
  0
LINE
  8
A-STILT
 10
14.943
 20
7.714
 30
0.0
 11
15.343
 21
7.714
 31
0.0
  0
LINE
  8
A-STILT
 10
15.143
 20
7.514
 30
0.0
 11
15.143
 21
7.914
 31
0.0
  0
CIRCLE
  8
A-STILT
 10
7.143
 20
7.714
 30
0.0
 40
0.100
  0
LINE
  8
A-STILT
 10
6.943
 20
7.714
 30
0.0
 11
7.343
 21
7.714
 31
0.0
  0
LINE
  8
A-STILT
 10
7.143
 20
7.514
 30
0.0
 11
7.143
 21
7.914
 31
0.0
  0
CIRCLE
  8
A-STILT
 10
10.286
 20
7.714
 30
0.0
 40
0.100
  0
LINE
  8
A-STILT
 10
10.086
 20
7.714
 30
0.0
 11
10.486
 21
7.714
 31
0.0
  0
LINE
  8
A-STILT
 10
10.286
 20
7.514
 30
0.0
 11
10.286
 21
7.914
 31
0.0
  0
CIRCLE
  8
A-STILT
 10
0.000
 20
7.714
 30
0.0
 40
0.100
  0
LINE
  8
A-STILT
 10
-0.200
 20
7.714
 30
0.0
 11
0.200
 21
7.714
 31
0.0
  0
LINE
  8
A-STILT
 10
0.000
 20
7.514
 30
0.0
 11
0.000
 21
7.914
 31
0.0
  0
CIRCLE
  8
A-STILT
 10
7.143
 20
5.143
 30
0.0
 40
0.100
  0
LINE
  8
A-STILT
 10
6.943
 20
5.143
 30
0.0
 11
7.343
 21
5.143
 31
0.0
  0
LINE
  8
A-STILT
 10
7.143
 20
4.943
 30
0.0
 11
7.143
 21
5.343
 31
0.0
  0
CIRCLE
  8
A-STILT
 10
10.286
 20
5.143
 30
0.0
 40
0.100
  0
LINE
  8
A-STILT
 10
10.086
 20
5.143
 30
0.0
 11
10.486
 21
5.143
 31
0.0
  0
LINE
  8
A-STILT
 10
10.286
 20
4.943
 30
0.0
 11
10.286
 21
5.343
 31
0.0
  0
CIRCLE
  8
A-STILT
 10
0.000
 20
3.857
 30
0.0
 40
0.100
  0
LINE
  8
A-STILT
 10
-0.200
 20
3.857
 30
0.0
 11
0.200
 21
3.857
 31
0.0
  0
LINE
  8
A-STILT
 10
0.000
 20
3.657
 30
0.0
 11
0.000
 21
4.057
 31
0.0
  0
CIRCLE
  8
A-STILT
 10
3.429
 20
3.857
 30
0.0
 40
0.100
  0
LINE
  8
A-STILT
 10
3.229
 20
3.857
 30
0.0
 11
3.629
 21
3.857
 31
0.0
  0
LINE
  8
A-STILT
 10
3.429
 20
3.657
 30
0.0
 11
3.429
 21
4.057
 31
0.0
  0
CIRCLE
  8
A-STILT
 10
6.857
 20
3.857
 30
0.0
 40
0.100
  0
LINE
  8
A-STILT
 10
6.657
 20
3.857
 30
0.0
 11
7.057
 21
3.857
 31
0.0
  0
LINE
  8
A-STILT
 10
6.857
 20
3.657
 30
0.0
 11
6.857
 21
4.057
 31
0.0
  0
CIRCLE
  8
A-STILT
 10
7.143
 20
2.571
 30
0.0
 40
0.100
  0
LINE
  8
A-STILT
 10
6.943
 20
2.571
 30
0.0
 11
7.343
 21
2.571
 31
0.0
  0
LINE
  8
A-STILT
 10
7.143
 20
2.371
 30
0.0
 11
7.143
 21
2.771
 31
0.0
  0
CIRCLE
  8
A-STILT
 10
10.286
 20
2.571
 30
0.0
 40
0.100
  0
LINE
  8
A-STILT
 10
10.086
 20
2.571
 30
0.0
 11
10.486
 21
2.571
 31
0.0
  0
LINE
  8
A-STILT
 10
10.286
 20
2.371
 30
0.0
 11
10.286
 21
2.771
 31
0.0
  0
CIRCLE
  8
A-STILT
 10
0.000
 20
0.000
 30
0.0
 40
0.100
  0
LINE
  8
A-STILT
 10
-0.200
 20
0.000
 30
0.0
 11
0.200
 21
0.000
 31
0.0
  0
LINE
  8
A-STILT
 10
0.000
 20
-0.200
 30
0.0
 11
0.000
 21
0.200
 31
0.0
  0
CIRCLE
  8
A-STILT
 10
3.429
 20
0.000
 30
0.0
 40
0.100
  0
LINE
  8
A-STILT
 10
3.229
 20
0.000
 30
0.0
 11
3.629
 21
0.000
 31
0.0
  0
LINE
  8
A-STILT
 10
3.429
 20
-0.200
 30
0.0
 11
3.429
 21
0.200
 31
0.0
  0
CIRCLE
  8
A-STILT
 10
6.857
 20
0.000
 30
0.0
 40
0.100
  0
LINE
  8
A-STILT
 10
6.657
 20
0.000
 30
0.0
 11
7.057
 21
0.000
 31
0.0
  0
LINE
  8
A-STILT
 10
6.857
 20
-0.200
 30
0.0
 11
6.857
 21
0.200
 31
0.0
  0
CIRCLE
  8
A-STILT
 10
10.286
 20
0.000
 30
0.0
 40
0.100
  0
LINE
  8
A-STILT
 10
10.086
 20
0.000
 30
0.0
 11
10.486
 21
0.000
 31
0.0
  0
LINE
  8
A-STILT
 10
10.286
 20
-0.200
 30
0.0
 11
10.286
 21
0.200
 31
0.0
  0
LINE
  8
A-DECK
 10
-0.857
 20
0.000
 30
0.0
 11
10.286
 21
0.000
 31
0.0
  0
LINE
  8
A-DECK
 10
10.286
 20
0.000
 30
0.0
 11
10.286
 21
7.714
 31
0.0
  0
LINE
  8
A-DECK
 10
10.286
 20
7.714
 30
0.0
 11
15.143
 21
7.714
 31
0.0
  0
LINE
  8
A-DECK
 10
15.143
 20
7.714
 30
0.0
 11
15.143
 21
12.571
 31
0.0
  0
LINE
  8
A-DECK
 10
15.143
 20
12.571
 30
0.0
 11
16.571
 21
12.571
 31
0.0
  0
LINE
  8
A-DECK
 10
16.571
 20
12.571
 30
0.0
 11
16.571
 21
6.000
 31
0.0
  0
LINE
  8
A-DECK
 10
16.571
 20
6.000
 30
0.0
 11
12.000
 21
6.000
 31
0.0
  0
LINE
  8
A-DECK
 10
12.000
 20
6.000
 30
0.0
 11
12.000
 21
-1.714
 31
0.0
  0
LINE
  8
A-DECK
 10
12.000
 20
-1.714
 30
0.0
 11
-0.857
 21
-1.714
 31
0.0
  0
LINE
  8
A-DECK
 10
-0.857
 20
-1.714
 30
0.0
 11
-0.857
 21
0.000
 31
0.0
  0
LINE
  8
A-WET
 10
12.714
 20
5.286
 30
0.0
 11
16.000
 21
5.286
 31
0.0
  0
LINE
  8
A-WET
 10
16.000
 20
5.286
 30
0.0
 11
16.000
 21
2.714
 31
0.0
  0
LINE
  8
A-WET
 10
16.000
 20
2.714
 30
0.0
 11
12.714
 21
2.714
 31
0.0
  0
LINE
  8
A-WET
 10
12.714
 20
2.714
 30
0.0
 11
12.714
 21
5.286
 31
0.0
  0
LINE
  8
A-LANDSCAPE
 10
0.000
 20
10.143
 30
0.0
 11
7.143
 21
10.143
 31
0.0
  0
LINE
  8
A-LANDSCAPE
 10
7.143
 20
10.143
 30
0.0
 11
7.143
 21
7.714
 31
0.0
  0
LINE
  8
A-LANDSCAPE
 10
7.143
 20
7.714
 30
0.0
 11
0.000
 21
7.714
 31
0.0
  0
LINE
  8
A-LANDSCAPE
 10
0.000
 20
7.714
 30
0.0
 11
0.000
 21
10.143
 31
0.0
  0
LINE
  8
A-PATH
 10
-3.000
 20
12.143
 30
0.0
 11
0.000
 21
12.143
 31
0.0
  0
LINE
  8
A-PATH
 10
-3.000
 20
10.571
 30
0.0
 11
0.000
 21
10.571
 31
0.0
  0
LINE
  8
A-PATH
 10
-3.000
 20
12.143
 30
0.0
 11
-3.000
 21
10.571
 31
0.0
  0
LINE
  8
A-WINDOW
 10
4.000
 20
12.571
 30
0.0
 11
11.000
 21
12.571
 31
0.0
  0
LINE
  8
A-WINDOW
 10
4.000
 20
12.500
 30
0.0
 11
11.000
 21
12.500
 31
0.0
  0
LINE
  8
A-WINDOW
 10
4.000
 20
10.143
 30
0.0
 11
11.000
 21
10.143
 31
0.0
  0
LINE
  8
A-WINDOW
 10
4.000
 20
10.214
 30
0.0
 11
11.000
 21
10.214
 31
0.0
  0
LINE
  8
A-WINDOW
 10
0.000
 20
12.143
 30
0.0
 11
0.000
 21
11.571
 31
0.0
  0
LINE
  8
A-WINDOW
 10
7.357
 20
7.714
 30
0.0
 11
10.071
 21
7.714
 31
0.0
  0
LINE
  8
A-WINDOW
 10
7.357
 20
7.643
 30
0.0
 11
10.071
 21
7.643
 31
0.0
  0
LINE
  8
A-FURN
 10
0.571
 20
7.143
 30
0.0
 11
2.000
 21
7.143
 31
0.0
  0
LINE
  8
A-FURN
 10
2.000
 20
7.143
 30
0.0
 11
2.000
 21
5.714
 31
0.0
  0
LINE
  8
A-FURN
 10
2.000
 20
5.714
 30
0.0
 11
0.571
 21
5.714
 31
0.0
  0
LINE
  8
A-FURN
 10
0.571
 20
5.714
 30
0.0
 11
0.571
 21
7.143
 31
0.0
  0
LINE
  8
A-FURN
 10
0.571
 20
3.143
 30
0.0
 11
2.000
 21
3.143
 31
0.0
  0
LINE
  8
A-FURN
 10
2.000
 20
3.143
 30
0.0
 11
2.000
 21
1.714
 31
0.0
  0
LINE
  8
A-FURN
 10
2.000
 20
1.714
 30
0.0
 11
0.571
 21
1.714
 31
0.0
  0
LINE
  8
A-FURN
 10
0.571
 20
1.714
 30
0.0
 11
0.571
 21
3.143
 31
0.0
  0
LINE
  8
A-FURN
 10
4.000
 20
3.143
 30
0.0
 11
5.429
 21
3.143
 31
0.0
  0
LINE
  8
A-FURN
 10
5.429
 20
3.143
 30
0.0
 11
5.429
 21
1.714
 31
0.0
  0
LINE
  8
A-FURN
 10
5.429
 20
1.714
 30
0.0
 11
4.000
 21
1.714
 31
0.0
  0
LINE
  8
A-FURN
 10
4.000
 20
1.714
 30
0.0
 11
4.000
 21
3.143
 31
0.0
  0
LINE
  8
A-FURN
 10
7.571
 20
7.286
 30
0.0
 11
9.000
 21
7.286
 31
0.0
  0
LINE
  8
A-FURN
 10
9.000
 20
7.286
 30
0.0
 11
9.000
 21
5.857
 31
0.0
  0
LINE
  8
A-FURN
 10
9.000
 20
5.857
 30
0.0
 11
7.571
 21
5.857
 31
0.0
  0
LINE
  8
A-FURN
 10
7.571
 20
5.857
 30
0.0
 11
7.571
 21
7.286
 31
0.0
  0
LINE
  8
A-KITCHEN
 10
11.571
 20
10.857
 30
0.0
 11
14.857
 21
10.857
 31
0.0
  0
LINE
  8
A-KITCHEN
 10
11.571
 20
10.857
 30
0.0
 11
11.571
 21
10.571
 31
0.0
  0
TEXT
  8
A-TEXT
 10
1.857
 20
11.429
 30
0.0
 40
0.250
  1
ENTRANCE FOYER
 50
0.0
  0
TEXT
  8
A-TEXT
 10
1.857
 20
11.143
 30
0.0
 40
0.180
  1
160 sq.ft (14.9 sq.m)
 50
0.0
  0
TEXT
  8
A-TEXT
 10
7.500
 20
11.500
 30
0.0
 40
0.280
  1
GRAND FAMILY LIVING PAVILION
 50
0.0
  0
TEXT
  8
A-TEXT
 10
7.500
 20
11.214
 30
0.0
 40
0.180
  1
580 sq.ft (53.9 sq.m)
 50
0.0
  0
TEXT
  8
A-TEXT
 10
13.214
 20
11.500
 30
0.0
 40
0.250
  1
CHEF KITCHEN & DINING
 50
0.0
  0
TEXT
  8
A-TEXT
 10
13.214
 20
11.214
 30
0.0
 40
0.180
  1
420 sq.ft (39.0 sq.m)
 50
0.0
  0
TEXT
  8
A-TEXT
 10
8.714
 20
6.571
 30
0.0
 40
0.250
  1
FLAGSHIP MASTER SUITE
 50
0.0
  0
TEXT
  8
A-TEXT
 10
8.714
 20
6.286
 30
0.0
 40
0.180
  1
380 sq.ft (35.3 sq.m)
 50
0.0
  0
TEXT
  8
A-TEXT
 10
8.714
 20
4.000
 30
0.0
 40
0.250
  1
SIGNATURE ENSUITE
 50
0.0
  0
TEXT
  8
A-TEXT
 10
8.714
 20
3.714
 30
0.0
 40
0.180
  1
220 sq.ft (20.4 sq.m)
 50
0.0
  0
TEXT
  8
A-TEXT
 10
3.571
 20
6.000
 30
0.0
 40
0.250
  1
BEDROOM 2 (GUEST SUITE)
 50
0.0
  0
TEXT
  8
A-TEXT
 10
3.571
 20
5.714
 30
0.0
 40
0.180
  1
380 sq.ft (35.3 sq.m)
 50
0.0
  0
TEXT
  8
A-TEXT
 10
1.857
 20
2.143
 30
0.0
 40
0.250
  1
BEDROOM 3
 50
0.0
  0
TEXT
  8
A-TEXT
 10
1.857
 20
1.857
 30
0.0
 40
0.180
  1
240 sq.ft (22.3 sq.m)
 50
0.0
  0
TEXT
  8
A-TEXT
 10
5.286
 20
2.143
 30
0.0
 40
0.250
  1
BEDROOM 4
 50
0.0
  0
TEXT
  8
A-TEXT
 10
5.286
 20
1.857
 30
0.0
 40
0.180
  1
240 sq.ft (22.3 sq.m)
 50
0.0
  0
TEXT
  8
A-TEXT
 10
13.214
 20
9.143
 30
0.0
 40
0.220
  1
OFF-GRID SOLAR & UTILITY
 50
0.0
  0
TEXT
  8
A-TEXT
 10
13.214
 20
8.857
 30
0.0
 40
0.180
  1
180 sq.ft (16.7 sq.m)
 50
0.0
  0
TEXT
  8
A-TEXT
 10
3.571
 20
9.000
 30
0.0
 40
0.250
  1
WELLNESS COURTYARD GARDEN
 50
0.0
  0
TEXT
  8
A-TEXT
 10
3.571
 20
8.714
 30
0.0
 40
0.180
  1
420 sq.ft (39.0 sq.m)
 50
0.0
  0
TEXT
  8
A-TEXT
 10
14.357
 20
4.143
 30
0.0
 40
0.220
  1
STILTED PLUNGE POOL
 50
0.0
  0
LINE
  8
A-DIMS
 10
0.000
 20
13.000
 30
0.0
 11
15.143
 21
13.000
 31
0.0
  0
CIRCLE
  8
A-DIMS
 10
0.000
 20
13.000
 30
0.0
 40
0.050
  0
CIRCLE
  8
A-DIMS
 10
15.143
 20
13.000
 30
0.0
 40
0.050
  0
TEXT
  8
A-DIMS
 10
7.571
 20
13.150
 30
0.0
 40
0.200
  1
15.14m (49' 8") overall width
 50
0.0
  0
LINE
  8
A-DIMS
 10
-0.500
 20
0.000
 30
0.0
 11
-0.500
 21
12.571
 31
0.0
  0
CIRCLE
  8
A-DIMS
 10
-0.500
 20
0.000
 30
0.0
 40
0.050
  0
CIRCLE
  8
A-DIMS
 10
-0.500
 20
12.571
 30
0.0
 40
0.050
  0
TEXT
  8
A-DIMS
 10
-0.700
 20
6.286
 30
0.0
 40
0.200
  1
12.57m (41' 3") overall length
 50
90.0
  0
TEXT
  8
A-DIMS
 10
0.500
 20
12.000
 30
0.0
 40
0.150
  1
Indicative dimensions only -- subject to architect and site survey.
 50
0.0
  0
CIRCLE
  8
A-NORTH
 10
1.000
 20
10.000
 30
0.0
 40
0.500
  0
LINE
  8
A-NORTH
 10
1.000
 20
9.500
 30
0.0
 11
1.000
 21
10.600
 31
0.0
  0
LINE
  8
A-NORTH
 10
1.000
 20
10.600
 30
0.0
 11
0.800
 21
10.200
 31
0.0
  0
LINE
  8
A-NORTH
 10
1.000
 20
10.600
 30
0.0
 11
1.200
 21
10.200
 31
0.0
  0
TEXT
  8
A-NORTH
 10
1.000
 20
10.800
 30
0.0
 40
0.250
  1
N
 50
0.0
  0
LINE
  8
A-TEXT
 10
10.500
 20
0.500
 30
0.0
 11
14.800
 21
0.500
 31
0.0
  0
LINE
  8
A-TEXT
 10
14.800
 20
0.500
 30
0.0
 11
14.800
 21
3.800
 31
0.0
  0
LINE
  8
A-TEXT
 10
14.800
 20
3.800
 30
0.0
 11
10.500
 21
3.800
 31
0.0
  0
LINE
  8
A-TEXT
 10
10.500
 20
3.800
 30
0.0
 11
10.500
 21
0.500
 31
0.0
  0
LINE
  8
A-TEXT
 10
10.500
 20
3.300
 30
0.0
 11
14.800
 21
3.300
 31
0.0
  0
TEXT
  8
A-TEXT
 10
10.700
 20
3.400
 30
0.0
 40
0.240
  1
RESERVA VERDE GOA
 50
0.0
  0
TEXT
  8
A-TEXT
 10
10.700
 20
3.000
 30
0.0
 40
0.180
  1
Model: 4BHK Signature Forest Estate
 50
0.0
  0
TEXT
  8
A-TEXT
 10
10.700
 20
2.700
 30
0.0
 40
0.160
  1
Drawing: Conceptual Floor Plan
 50
0.0
  0
TEXT
  8
A-TEXT
 10
10.700
 20
2.400
 30
0.0
 40
0.140
  1
Type: Conceptual 2D presentation plan
 50
0.0
  0
TEXT
  8
A-TEXT
 10
10.700
 20
2.100
 30
0.0
 40
0.140
  1
Scale: Indicative / 1:100 @ A3
 50
0.0
  0
TEXT
  8
A-TEXT
 10
10.700
 20
1.800
 30
0.0
 40
0.140
  1
Revision: R0 (Conceptual)
 50
0.0
  0
TEXT
  8
A-TEXT
 10
10.700
 20
1.500
 30
0.0
 40
0.140
  1
Date: May 30, 2026
 50
0.0
  0
TEXT
  8
A-DISCLAIMER
 10
0.100
 20
-0.400
 30
0.0
 40
0.140
  1
LEGAL TECHNICAL NOTICE:
 50
0.0
  0
TEXT
  8
A-DISCLAIMER
 10
0.100
 20
-0.600
 30
0.0
 40
0.140
  1
ALL DIMENSIONS, LAYOUTS, BUILT-UP AREAS, STILT PILES, AND SPECIFICATIONS
 50
0.0
  0
TEXT
  8
A-DISCLAIMER
 10
0.100
 20
-0.800
 30
0.0
 40
0.140
  1
ARE CONCEPTUAL AND INDICATIVE ONLY. NOT FOR CONSTRUCTION. SUBJECT TO FINAL
 50
0.0
  0
TEXT
  8
A-DISCLAIMER
 10
0.100
 20
-1.000
 30
0.0
 40
0.140
  1
SURVEY, SOIL TESTS, ARCHITECT REVIEWS, TCP PLANNING, RERA RULES, AND STATUTORY APPROVALS.
 50
0.0
  0
ENDSEC
  0
EOF
