  0
SECTION
  2
HEADER
  9
$ACADVER
  1
AC1009
  0
ENDSEC
  0
SECTION
  2
TABLES
  0
TABLE
  2
LAYER
 70
16
  0
LAYER
  2
A-WALL-EXT
 70
0
 62
3
  6
CONTINUOUS
  0
LAYER
  2
A-WALL-INT
 70
0
 62
4
  6
CONTINUOUS
  0
LAYER
  2
A-STILT
 70
0
 62
1
  6
CONTINUOUS
  0
LAYER
  2
A-DOOR
 70
0
 62
2
  6
CONTINUOUS
  0
LAYER
  2
A-WINDOW
 70
0
 62
5
  6
CONTINUOUS
  0
LAYER
  2
A-FURN
 70
0
 62
9
  6
CONTINUOUS
  0
LAYER
  2
A-TEXT
 70
0
 62
7
  6
CONTINUOUS
  0
LAYER
  2
A-DIMS
 70
0
 62
8
  6
CONTINUOUS
  0
LAYER
  2
A-DECK
 70
0
 62
30
  6
CONTINUOUS
  0
LAYER
  2
A-WET
 70
0
 62
140
  6
CONTINUOUS
  0
LAYER
  2
A-KITCHEN
 70
0
 62
40
  6
CONTINUOUS
  0
LAYER
  2
A-UTILITY
 70
0
 62
6
  6
CONTINUOUS
  0
LAYER
  2
A-LANDSCAPE
 70
0
 62
62
  6
CONTINUOUS
  0
LAYER
  2
A-PATH
 70
0
 62
22
  6
CONTINUOUS
  0
LAYER
  2
A-NORTH
 70
0
 62
7
  6
CONTINUOUS
  0
LAYER
  2
A-DISCLAIMER
 70
0
 62
8
  6
CONTINUOUS
  0
ENDTAB
  0
ENDSEC
  0
SECTION
  2
ENTITIES
  0
LINE
  8
A-WALL-EXT
 10
0.000
 20
12.571
 30
0.0
 11
12.857
 21
12.571
 31
0.0
  0
LINE
  8
A-WALL-EXT
 10
12.857
 20
12.571
 30
0.0
 11
12.857
 21
7.714
 31
0.0
  0
LINE
  8
A-WALL-EXT
 10
12.857
 20
7.714
 30
0.0
 11
8.000
 21
7.714
 31
0.0
  0
LINE
  8
A-WALL-EXT
 10
8.000
 20
7.714
 30
0.0
 11
8.000
 21
0.000
 31
0.0
  0
LINE
  8
A-WALL-EXT
 10
8.000
 20
0.000
 30
0.0
 11
0.000
 21
0.000
 31
0.0
  0
LINE
  8
A-WALL-EXT
 10
0.000
 20
0.000
 30
0.0
 11
0.000
 21
12.571
 31
0.0
  0
LINE
  8
A-WALL-EXT
 10
0.143
 20
12.429
 30
0.0
 11
12.714
 21
12.429
 31
0.0
  0
LINE
  8
A-WALL-EXT
 10
12.714
 20
12.429
 30
0.0
 11
12.714
 21
7.857
 31
0.0
  0
LINE
  8
A-WALL-EXT
 10
12.714
 20
7.857
 30
0.0
 11
8.143
 21
7.857
 31
0.0
  0
LINE
  8
A-WALL-EXT
 10
8.143
 20
7.857
 30
0.0
 11
8.143
 21
0.143
 31
0.0
  0
LINE
  8
A-WALL-EXT
 10
8.143
 20
0.143
 30
0.0
 11
0.143
 21
0.143
 31
0.0
  0
LINE
  8
A-WALL-EXT
 10
0.143
 20
0.143
 30
0.0
 11
0.143
 21
12.429
 31
0.0
  0
LINE
  8
A-WALL-INT
 10
9.571
 20
10.143
 30
0.0
 11
12.857
 21
10.143
 31
0.0
  0
LINE
  8
A-WALL-INT
 10
4.857
 20
5.143
 30
0.0
 11
8.000
 21
5.143
 31
0.0
  0
LINE
  8
A-WALL-INT
 10
0.000
 20
3.857
 30
0.0
 11
4.857
 21
3.857
 31
0.0
  0
LINE
  8
A-WALL-INT
 10
4.857
 20
7.714
 30
0.0
 11
4.857
 21
0.000
 31
0.0
  0
CIRCLE
  8
A-STILT
 10
0.000
 20
12.571
 30
0.0
 40
0.100
  0
LINE
  8
A-STILT
 10
-0.200
 20
12.571
 30
0.0
 11
0.200
 21
12.571
 31
0.0
  0
LINE
  8
A-STILT
 10
0.000
 20
12.371
 30
0.0
 11
0.000
 21
12.771
 31
0.0
  0
CIRCLE
  8
A-STILT
 10
3.143
 20
12.571
 30
0.0
 40
0.100
  0
LINE
  8
A-STILT
 10
2.943
 20
12.571
 30
0.0
 11
3.343
 21
12.571
 31
0.0
  0
LINE
  8
A-STILT
 10
3.143
 20
12.371
 30
0.0
 11
3.143
 21
12.771
 31
0.0
  0
CIRCLE
  8
A-STILT
 10
6.286
 20
12.571
 30
0.0
 40
0.100
  0
LINE
  8
A-STILT
 10
6.086
 20
12.571
 30
0.0
 11
6.486
 21
12.571
 31
0.0
  0
LINE
  8
A-STILT
 10
6.286
 20
12.371
 30
0.0
 11
6.286
 21
12.771
 31
0.0
  0
CIRCLE
  8
A-STILT
 10
9.571
 20
12.571
 30
0.0
 40
0.100
  0
LINE
  8
A-STILT
 10
9.371
 20
12.571
 30
0.0
 11
9.771
 21
12.571
 31
0.0
  0
LINE
  8
A-STILT
 10
9.571
 20
12.371
 30
0.0
 11
9.571
 21
12.771
 31
0.0
  0
CIRCLE
  8
A-STILT
 10
12.857
 20
12.571
 30
0.0
 40
0.100
  0
LINE
  8
A-STILT
 10
12.657
 20
12.571
 30
0.0
 11
13.057
 21
12.571
 31
0.0
  0
LINE
  8
A-STILT
 10
12.857
 20
12.371
 30
0.0
 11
12.857
 21
12.771
 31
0.0
  0
CIRCLE
  8
A-STILT
 10
0.000
 20
10.143
 30
0.0
 40
0.100
  0
LINE
  8
A-STILT
 10
-0.200
 20
10.143
 30
0.0
 11
0.200
 21
10.143
 31
0.0
  0
LINE
  8
A-STILT
 10
0.000
 20
9.943
 30
0.0
 11
0.000
 21
10.343
 31
0.0
  0
CIRCLE
  8
A-STILT
 10
3.143
 20
10.143
 30
0.0
 40
0.100
  0
LINE
  8
A-STILT
 10
2.943
 20
10.143
 30
0.0
 11
3.343
 21
10.143
 31
0.0
  0
LINE
  8
A-STILT
 10
3.143
 20
9.943
 30
0.0
 11
3.143
 21
10.343
 31
0.0
  0
CIRCLE
  8
A-STILT
 10
6.286
 20
10.143
 30
0.0
 40
0.100
  0
LINE
  8
A-STILT
 10
6.086
 20
10.143
 30
0.0
 11
6.486
 21
10.143
 31
0.0
  0
LINE
  8
A-STILT
 10
6.286
 20
9.943
 30
0.0
 11
6.286
 21
10.343
 31
0.0
  0
CIRCLE
  8
A-STILT
 10
9.571
 20
10.143
 30
0.0
 40
0.100
  0
LINE
  8
A-STILT
 10
9.371
 20
10.143
 30
0.0
 11
9.771
 21
10.143
 31
0.0
  0
LINE
  8
A-STILT
 10
9.571
 20
9.943
 30
0.0
 11
9.571
 21
10.343
 31
0.0
  0
CIRCLE
  8
A-STILT
 10
12.857
 20
10.143
 30
0.0
 40
0.100
  0
LINE
  8
A-STILT
 10
12.657
 20
10.143
 30
0.0
 11
13.057
 21
10.143
 31
0.0
  0
LINE
  8
A-STILT
 10
12.857
 20
9.943
 30
0.0
 11
12.857
 21
10.343
 31
0.0
  0
CIRCLE
  8
A-STILT
 10
9.571
 20
7.714
 30
0.0
 40
0.100
  0
LINE
  8
A-STILT
 10
9.371
 20
7.714
 30
0.0
 11
9.771
 21
7.714
 31
0.0
  0
LINE
  8
A-STILT
 10
9.571
 20
7.514
 30
0.0
 11
9.571
 21
7.914
 31
0.0
  0
CIRCLE
  8
A-STILT
 10
12.857
 20
7.714
 30
0.0
 40
0.100
  0
LINE
  8
A-STILT
 10
12.657
 20
7.714
 30
0.0
 11
13.057
 21
7.714
 31
0.0
  0
LINE
  8
A-STILT
 10
12.857
 20
7.514
 30
0.0
 11
12.857
 21
7.914
 31
0.0
  0
CIRCLE
  8
A-STILT
 10
4.857
 20
7.714
 30
0.0
 40
0.100
  0
LINE
  8
A-STILT
 10
4.657
 20
7.714
 30
0.0
 11
5.057
 21
7.714
 31
0.0
  0
LINE
  8
A-STILT
 10
4.857
 20
7.514
 30
0.0
 11
4.857
 21
7.914
 31
0.0
  0
CIRCLE
  8
A-STILT
 10
8.000
 20
7.714
 30
0.0
 40
0.100
  0
LINE
  8
A-STILT
 10
7.800
 20
7.714
 30
0.0
 11
8.200
 21
7.714
 31
0.0
  0
LINE
  8
A-STILT
 10
8.000
 20
7.514
 30
0.0
 11
8.000
 21
7.914
 31
0.0
  0
CIRCLE
  8
A-STILT
 10
0.000
 20
7.714
 30
0.0
 40
0.100
  0
LINE
  8
A-STILT
 10
-0.200
 20
7.714
 30
0.0
 11
0.200
 21
7.714
 31
0.0
  0
LINE
  8
A-STILT
 10
0.000
 20
7.514
 30
0.0
 11
0.000
 21
7.914
 31
0.0
  0
CIRCLE
  8
A-STILT
 10
4.857
 20
5.143
 30
0.0
 40
0.100
  0
LINE
  8
A-STILT
 10
4.657
 20
5.143
 30
0.0
 11
5.057
 21
5.143
 31
0.0
  0
LINE
  8
A-STILT
 10
4.857
 20
4.943
 30
0.0
 11
4.857
 21
5.343
 31
0.0
  0
CIRCLE
  8
A-STILT
 10
8.000
 20
5.143
 30
0.0
 40
0.100
  0
LINE
  8
A-STILT
 10
7.800
 20
5.143
 30
0.0
 11
8.200
 21
5.143
 31
0.0
  0
LINE
  8
A-STILT
 10
8.000
 20
4.943
 30
0.0
 11
8.000
 21
5.343
 31
0.0
  0
CIRCLE
  8
A-STILT
 10
0.000
 20
3.857
 30
0.0
 40
0.100
  0
LINE
  8
A-STILT
 10
-0.200
 20
3.857
 30
0.0
 11
0.200
 21
3.857
 31
0.0
  0
LINE
  8
A-STILT
 10
0.000
 20
3.657
 30
0.0
 11
0.000
 21
4.057
 31
0.0
  0
CIRCLE
  8
A-STILT
 10
4.857
 20
3.857
 30
0.0
 40
0.100
  0
LINE
  8
A-STILT
 10
4.657
 20
3.857
 30
0.0
 11
5.057
 21
3.857
 31
0.0
  0
LINE
  8
A-STILT
 10
4.857
 20
3.657
 30
0.0
 11
4.857
 21
4.057
 31
0.0
  0
CIRCLE
  8
A-STILT
 10
0.000
 20
0.000
 30
0.0
 40
0.100
  0
LINE
  8
A-STILT
 10
-0.200
 20
0.000
 30
0.0
 11
0.200
 21
0.000
 31
0.0
  0
LINE
  8
A-STILT
 10
0.000
 20
-0.200
 30
0.0
 11
0.000
 21
0.200
 31
0.0
  0
CIRCLE
  8
A-STILT
 10
4.857
 20
0.000
 30
0.0
 40
0.100
  0
LINE
  8
A-STILT
 10
4.657
 20
0.000
 30
0.0
 11
5.057
 21
0.000
 31
0.0
  0
LINE
  8
A-STILT
 10
4.857
 20
-0.200
 30
0.0
 11
4.857
 21
0.200
 31
0.0
  0
CIRCLE
  8
A-STILT
 10
8.000
 20
0.000
 30
0.0
 40
0.100
  0
LINE
  8
A-STILT
 10
7.800
 20
0.000
 30
0.0
 11
8.200
 21
0.000
 31
0.0
  0
LINE
  8
A-STILT
 10
8.000
 20
-0.200
 30
0.0
 11
8.000
 21
0.200
 31
0.0
  0
LINE
  8
A-DECK
 10
-1.714
 20
0.000
 30
0.0
 11
8.000
 21
0.000
 31
0.0
  0
LINE
  8
A-DECK
 10
8.000
 20
0.000
 30
0.0
 11
8.000
 21
7.714
 31
0.0
  0
LINE
  8
A-DECK
 10
8.000
 20
7.714
 30
0.0
 11
12.857
 21
7.714
 31
0.0
  0
LINE
  8
A-DECK
 10
12.857
 20
7.714
 30
0.0
 11
12.857
 21
12.571
 31
0.0
  0
LINE
  8
A-DECK
 10
12.857
 20
12.571
 30
0.0
 11
14.143
 21
12.571
 31
0.0
  0
LINE
  8
A-DECK
 10
14.143
 20
12.571
 30
0.0
 11
14.143
 21
6.000
 31
0.0
  0
LINE
  8
A-DECK
 10
14.143
 20
6.000
 30
0.0
 11
9.714
 21
6.000
 31
0.0
  0
LINE
  8
A-DECK
 10
9.714
 20
6.000
 30
0.0
 11
9.714
 21
-1.714
 31
0.0
  0
LINE
  8
A-DECK
 10
9.714
 20
-1.714
 30
0.0
 11
-1.714
 21
-1.714
 31
0.0
  0
LINE
  8
A-DECK
 10
-1.714
 20
-1.714
 30
0.0
 11
-1.714
 21
0.000
 31
0.0
  0
LINE
  8
A-WET
 10
10.429
 20
5.286
 30
0.0
 11
13.571
 21
5.286
 31
0.0
  0
LINE
  8
A-WET
 10
13.571
 20
5.286
 30
0.0
 11
13.571
 21
3.000
 31
0.0
  0
LINE
  8
A-WET
 10
13.571
 20
3.000
 30
0.0
 11
10.429
 21
3.000
 31
0.0
  0
LINE
  8
A-WET
 10
10.429
 20
3.000
 30
0.0
 11
10.429
 21
5.286
 31
0.0
  0
LINE
  8
A-LANDSCAPE
 10
0.000
 20
10.143
 30
0.0
 11
4.857
 21
10.143
 31
0.0
  0
LINE
  8
A-LANDSCAPE
 10
4.857
 20
10.143
 30
0.0
 11
4.857
 21
7.714
 31
0.0
  0
LINE
  8
A-LANDSCAPE
 10
4.857
 20
7.714
 30
0.0
 11
0.000
 21
7.714
 31
0.0
  0
LINE
  8
A-LANDSCAPE
 10
0.000
 20
7.714
 30
0.0
 11
0.000
 21
10.143
 31
0.0
  0
LINE
  8
A-PATH
 10
-3.000
 20
11.429
 30
0.0
 11
0.000
 21
11.429
 31
0.0
  0
LINE
  8
A-PATH
 10
-3.000
 20
10.571
 30
0.0
 11
0.000
 21
10.571
 31
0.0
  0
LINE
  8
A-PATH
 10
-3.000
 20
11.429
 30
0.0
 11
-3.000
 21
10.571
 31
0.0
  0
LINE
  8
A-WINDOW
 10
3.429
 20
12.571
 30
0.0
 11
9.286
 21
12.571
 31
0.0
  0
LINE
  8
A-WINDOW
 10
3.429
 20
12.500
 30
0.0
 11
9.286
 21
12.500
 31
0.0
  0
LINE
  8
A-WINDOW
 10
3.429
 20
10.143
 30
0.0
 11
9.286
 21
10.143
 31
0.0
  0
LINE
  8
A-WINDOW
 10
3.429
 20
10.214
 30
0.0
 11
9.286
 21
10.214
 31
0.0
  0
LINE
  8
A-WINDOW
 10
0.000
 20
12.143
 30
0.0
 11
0.000
 21
11.571
 31
0.0
  0
LINE
  8
A-WINDOW
 10
5.071
 20
7.714
 30
0.0
 11
7.786
 21
7.714
 31
0.0
  0
LINE
  8
A-WINDOW
 10
5.071
 20
7.643
 30
0.0
 11
7.786
 21
7.643
 31
0.0
  0
LINE
  8
A-FURN
 10
0.571
 20
7.000
 30
0.0
 11
2.000
 21
7.000
 31
0.0
  0
LINE
  8
A-FURN
 10
2.000
 20
7.000
 30
0.0
 11
2.000
 21
5.571
 31
0.0
  0
LINE
  8
A-FURN
 10
2.000
 20
5.571
 30
0.0
 11
0.571
 21
5.571
 31
0.0
  0
LINE
  8
A-FURN
 10
0.571
 20
5.571
 30
0.0
 11
0.571
 21
7.000
 31
0.0
  0
LINE
  8
A-FURN
 10
0.571
 20
3.143
 30
0.0
 11
2.000
 21
3.143
 31
0.0
  0
LINE
  8
A-FURN
 10
2.000
 20
3.143
 30
0.0
 11
2.000
 21
1.714
 31
0.0
  0
LINE
  8
A-FURN
 10
2.000
 20
1.714
 30
0.0
 11
0.571
 21
1.714
 31
0.0
  0
LINE
  8
A-FURN
 10
0.571
 20
1.714
 30
0.0
 11
0.571
 21
3.143
 31
0.0
  0
LINE
  8
A-FURN
 10
5.286
 20
7.286
 30
0.0
 11
6.714
 21
7.286
 31
0.0
  0
LINE
  8
A-FURN
 10
6.714
 20
7.286
 30
0.0
 11
6.714
 21
5.857
 31
0.0
  0
LINE
  8
A-FURN
 10
6.714
 20
5.857
 30
0.0
 11
5.286
 21
5.857
 31
0.0
  0
LINE
  8
A-FURN
 10
5.286
 20
5.857
 30
0.0
 11
5.286
 21
7.286
 31
0.0
  0
LINE
  8
A-KITCHEN
 10
9.857
 20
10.857
 30
0.0
 11
12.571
 21
10.857
 31
0.0
  0
LINE
  8
A-KITCHEN
 10
9.857
 20
10.857
 30
0.0
 11
9.857
 21
10.571
 31
0.0
  0
TEXT
  8
A-TEXT
 10
1.571
 20
11.429
 30
0.0
 40
0.250
  1
ENTRANCE FOYER
 50
0.0
  0
TEXT
  8
A-TEXT
 10
1.571
 20
11.143
 30
0.0
 40
0.180
  1
120 sq.ft (11.1 sq.m)
 50
0.0
  0
TEXT
  8
A-TEXT
 10
6.357
 20
11.500
 30
0.0
 40
0.280
  1
FAMILY LIVING PAVILION
 50
0.0
  0
TEXT
  8
A-TEXT
 10
6.357
 20
11.214
 30
0.0
 40
0.180
  1
480 sq.ft (44.6 sq.m)
 50
0.0
  0
TEXT
  8
A-TEXT
 10
11.214
 20
11.500
 30
0.0
 40
0.250
  1
DINING & OPEN KITCHEN
 50
0.0
  0
TEXT
  8
A-TEXT
 10
11.214
 20
11.214
 30
0.0
 40
0.180
  1
380 sq.ft (35.3 sq.m)
 50
0.0
  0
TEXT
  8
A-TEXT
 10
6.429
 20
6.571
 30
0.0
 40
0.250
  1
MASTER BED SUITE
 50
0.0
  0
TEXT
  8
A-TEXT
 10
6.429
 20
6.286
 30
0.0
 40
0.180
  1
340 sq.ft (31.6 sq.m)
 50
0.0
  0
TEXT
  8
A-TEXT
 10
6.429
 20
4.000
 30
0.0
 40
0.250
  1
MASTER ENSUITE
 50
0.0
  0
TEXT
  8
A-TEXT
 10
6.429
 20
3.714
 30
0.0
 40
0.180
  1
180 sq.ft (16.7 sq.m)
 50
0.0
  0
TEXT
  8
A-TEXT
 10
2.429
 20
6.000
 30
0.0
 40
0.250
  1
BEDROOM 2 (GUEST SUITE)
 50
0.0
  0
TEXT
  8
A-TEXT
 10
2.429
 20
5.714
 30
0.0
 40
0.180
  1
280 sq.ft (26.0 sq.m)
 50
0.0
  0
TEXT
  8
A-TEXT
 10
2.429
 20
2.143
 30
0.0
 40
0.250
  1
BEDROOM 3 (GUEST SUITE)
 50
0.0
  0
TEXT
  8
A-TEXT
 10
2.429
 20
1.857
 30
0.0
 40
0.180
  1
280 sq.ft (26.0 sq.m)
 50
0.0
  0
TEXT
  8
A-TEXT
 10
11.214
 20
9.143
 30
0.0
 40
0.220
  1
UTILITY & SOLAR HUB
 50
0.0
  0
TEXT
  8
A-TEXT
 10
11.214
 20
8.857
 30
0.0
 40
0.180
  1
120 sq.ft (11.1 sq.m)
 50
0.0
  0
TEXT
  8
A-TEXT
 10
2.429
 20
9.000
 30
0.0
 40
0.250
  1
INTERNAL COURT
 50
0.0
  0
TEXT
  8
A-TEXT
 10
2.429
 20
8.714
 30
0.0
 40
0.180
  1
260 sq.ft (24.2 sq.m)
 50
0.0
  0
TEXT
  8
A-TEXT
 10
12.000
 20
4.143
 30
0.0
 40
0.220
  1
STILTED PLUNGE POOL
 50
0.0
  0
LINE
  8
A-DIMS
 10
0.000
 20
13.000
 30
0.0
 11
12.857
 21
13.000
 31
0.0
  0
CIRCLE
  8
A-DIMS
 10
0.000
 20
13.000
 30
0.0
 40
0.050
  0
CIRCLE
  8
A-DIMS
 10
12.857
 20
13.000
 30
0.0
 40
0.050
  0
TEXT
  8
A-DIMS
 10
6.429
 20
13.150
 30
0.0
 40
0.200
  1
12.86m (42' 2") overall width
 50
0.0
  0
LINE
  8
A-DIMS
 10
-0.500
 20
0.000
 30
0.0
 11
-0.500
 21
12.571
 31
0.0
  0
CIRCLE
  8
A-DIMS
 10
-0.500
 20
0.000
 30
0.0
 40
0.050
  0
CIRCLE
  8
A-DIMS
 10
-0.500
 20
12.571
 30
0.0
 40
0.050
  0
TEXT
  8
A-DIMS
 10
-0.700
 20
6.286
 30
0.0
 40
0.200
  1
12.57m (41' 3") overall length
 50
90.0
  0
TEXT
  8
A-DIMS
 10
0.500
 20
12.000
 30
0.0
 40
0.150
  1
Indicative dimensions only -- subject to architect and site survey.
 50
0.0
  0
CIRCLE
  8
A-NORTH
 10
1.000
 20
10.000
 30
0.0
 40
0.500
  0
LINE
  8
A-NORTH
 10
1.000
 20
9.500
 30
0.0
 11
1.000
 21
10.600
 31
0.0
  0
LINE
  8
A-NORTH
 10
1.000
 20
10.600
 30
0.0
 11
0.800
 21
10.200
 31
0.0
  0
LINE
  8
A-NORTH
 10
1.000
 20
10.600
 30
0.0
 11
1.200
 21
10.200
 31
0.0
  0
TEXT
  8
A-NORTH
 10
1.000
 20
10.800
 30
0.0
 40
0.250
  1
N
 50
0.0
  0
LINE
  8
A-TEXT
 10
8.500
 20
0.500
 30
0.0
 11
12.500
 21
0.500
 31
0.0
  0
LINE
  8
A-TEXT
 10
12.500
 20
0.500
 30
0.0
 11
12.500
 21
3.800
 31
0.0
  0
LINE
  8
A-TEXT
 10
12.500
 20
3.800
 30
0.0
 11
8.500
 21
3.800
 31
0.0
  0
LINE
  8
A-TEXT
 10
8.500
 20
3.800
 30
0.0
 11
8.500
 21
0.500
 31
0.0
  0
LINE
  8
A-TEXT
 10
8.500
 20
3.300
 30
0.0
 11
12.500
 21
3.300
 31
0.0
  0
TEXT
  8
A-TEXT
 10
8.700
 20
3.400
 30
0.0
 40
0.240
  1
RESERVA VERDE GOA
 50
0.0
  0
TEXT
  8
A-TEXT
 10
8.700
 20
3.000
 30
0.0
 40
0.180
  1
Model: 3BHK Premium Forest Estate
 50
0.0
  0
TEXT
  8
A-TEXT
 10
8.700
 20
2.700
 30
0.0
 40
0.160
  1
Drawing: Conceptual Floor Plan
 50
0.0
  0
TEXT
  8
A-TEXT
 10
8.700
 20
2.400
 30
0.0
 40
0.140
  1
Type: Conceptual 2D presentation plan
 50
0.0
  0
TEXT
  8
A-TEXT
 10
8.700
 20
2.100
 30
0.0
 40
0.140
  1
Scale: Indicative / 1:100 @ A3
 50
0.0
  0
TEXT
  8
A-TEXT
 10
8.700
 20
1.800
 30
0.0
 40
0.140
  1
Revision: R0 (Conceptual)
 50
0.0
  0
TEXT
  8
A-TEXT
 10
8.700
 20
1.500
 30
0.0
 40
0.140
  1
Date: May 30, 2026
 50
0.0
  0
TEXT
  8
A-DISCLAIMER
 10
0.100
 20
-0.400
 30
0.0
 40
0.140
  1
LEGAL TECHNICAL NOTICE:
 50
0.0
  0
TEXT
  8
A-DISCLAIMER
 10
0.100
 20
-0.600
 30
0.0
 40
0.140
  1
ALL DIMENSIONS, LAYOUTS, BUILT-UP AREAS, STILT PILES, AND SPECIFICATIONS
 50
0.0
  0
TEXT
  8
A-DISCLAIMER
 10
0.100
 20
-0.800
 30
0.0
 40
0.140
  1
ARE CONCEPTUAL AND INDICATIVE ONLY. NOT FOR CONSTRUCTION. SUBJECT TO FINAL
 50
0.0
  0
TEXT
  8
A-DISCLAIMER
 10
0.100
 20
-1.000
 30
0.0
 40
0.140
  1
SURVEY, SOIL TESTS, ARCHITECT REVIEWS, TCP PLANNING, RERA RULES, AND STATUTORY APPROVALS.
 50
0.0
  0
ENDSEC
  0
EOF
