  0
SECTION
  2
HEADER
  9
$ACADVER
  1
AC1009
  0
ENDSEC
  0
SECTION
  2
TABLES
  0
TABLE
  2
LAYER
 70
16
  0
LAYER
  2
A-WALL-EXT
 70
0
 62
7
  6
CONTINUOUS
  0
LAYER
  2
A-WALL-INT
 70
0
 62
8
  6
CONTINUOUS
  0
LAYER
  2
A-STILT
 70
0
 62
1
  6
CONTINUOUS
  0
LAYER
  2
A-DOOR
 70
0
 62
9
  6
CONTINUOUS
  0
LAYER
  2
A-WINDOW
 70
0
 62
4
  6
CONTINUOUS
  0
LAYER
  2
A-FURN
 70
0
 62
9
  6
CONTINUOUS
  0
LAYER
  2
A-TEXT
 70
0
 62
7
  6
CONTINUOUS
  0
LAYER
  2
A-DIMS
 70
0
 62
5
  6
CONTINUOUS
  0
LAYER
  2
A-DECK
 70
0
 62
8
  6
CONTINUOUS
  0
LAYER
  2
A-WET
 70
0
 62
4
  6
CONTINUOUS
  0
LAYER
  2
A-KITCHEN
 70
0
 62
8
  6
CONTINUOUS
  0
LAYER
  2
A-UTILITY
 70
0
 62
8
  6
CONTINUOUS
  0
LAYER
  2
A-LANDSCAPE
 70
0
 62
9
  6
CONTINUOUS
  0
LAYER
  2
A-PATH
 70
0
 62
8
  6
CONTINUOUS
  0
LAYER
  2
A-NORTH
 70
0
 62
7
  6
CONTINUOUS
  0
LAYER
  2
A-DISCLAIMER
 70
0
 62
8
  6
CONTINUOUS
  0
ENDTAB
  0
ENDSEC
  0
SECTION
  2
ENTITIES
  0
LINE
  8
A-WALL-EXT
 10
0.000
 20
12.000
 30
0.0
 11
14.000
 21
12.000
 31
0.0
  0
LINE
  8
A-WALL-EXT
 10
14.000
 20
12.000
 30
0.0
 11
14.000
 21
0.000
 31
0.0
  0
LINE
  8
A-WALL-EXT
 10
14.000
 20
0.000
 30
0.0
 11
0.000
 21
0.000
 31
0.0
  0
LINE
  8
A-WALL-EXT
 10
0.000
 20
0.000
 30
0.0
 11
0.000
 21
12.000
 31
0.0
  0
LINE
  8
A-WALL-EXT
 10
0.200
 20
11.800
 30
0.0
 11
13.800
 21
11.800
 31
0.0
  0
LINE
  8
A-WALL-EXT
 10
13.800
 20
11.800
 30
0.0
 11
13.800
 21
0.200
 31
0.0
  0
LINE
  8
A-WALL-EXT
 10
13.800
 20
0.200
 30
0.0
 11
0.200
 21
0.200
 31
0.0
  0
LINE
  8
A-WALL-EXT
 10
0.200
 20
0.200
 30
0.0
 11
0.200
 21
11.800
 31
0.0
  0
LINE
  8
A-WALL-INT
 10
6.500
 20
0.200
 30
0.0
 11
6.500
 21
11.800
 31
0.0
  0
LINE
  8
A-WALL-INT
 10
9.500
 20
0.200
 30
0.0
 11
9.500
 21
11.800
 31
0.0
  0
LINE
  8
A-WALL-INT
 10
6.500
 20
7.500
 30
0.0
 11
13.800
 21
7.500
 31
0.0
  0
LINE
  8
A-WALL-INT
 10
6.500
 20
9.500
 30
0.0
 11
9.500
 21
9.500
 31
0.0
  0
LINE
  8
A-WALL-INT
 10
6.500
 20
3.500
 30
0.0
 11
13.800
 21
3.500
 31
0.0
  0
LINE
  8
A-WALL-INT
 10
6.500
 20
5.000
 30
0.0
 11
9.500
 21
5.000
 31
0.0
  0
LINE
  8
A-WALL-INT
 10
6.500
 20
2.000
 30
0.0
 11
9.500
 21
2.000
 31
0.0
  0
LINE
  8
A-WALL-INT
 10
8.000
 20
0.200
 30
0.0
 11
8.000
 21
2.000
 31
0.0
  0
LINE
  8
A-DECK
 10
0.000
 20
0.000
 30
0.0
 11
0.000
 21
-3.000
 31
0.0
  0
LINE
  8
A-DECK
 10
0.000
 20
-3.000
 30
0.0
 11
14.000
 21
-3.000
 31
0.0
  0
LINE
  8
A-DECK
 10
14.000
 20
-3.000
 30
0.0
 11
14.000
 21
0.000
 31
0.0
  0
LINE
  8
A-DECK
 10
0.000
 20
-3.000
 30
0.0
 11
0.000
 21
-5.500
 31
0.0
  0
LINE
  8
A-DECK
 10
0.000
 20
-5.500
 30
0.0
 11
8.000
 21
-5.500
 31
0.0
  0
LINE
  8
A-DECK
 10
8.000
 20
-5.500
 30
0.0
 11
8.000
 21
-3.000
 31
0.0
  0
LINE
  8
A-WET
 10
8.000
 20
-3.000
 30
0.0
 11
8.000
 21
-5.500
 31
0.0
  0
LINE
  8
A-WET
 10
8.000
 20
-5.500
 30
0.0
 11
14.000
 21
-5.500
 31
0.0
  0
LINE
  8
A-WET
 10
14.000
 20
-5.500
 30
0.0
 11
14.000
 21
-3.000
 31
0.0
  0
LINE
  8
A-LANDSCAPE
 10
0.000
 20
12.200
 30
0.0
 11
14.000
 21
12.200
 31
0.0
  0
LINE
  8
A-LANDSCAPE
 10
14.200
 20
0.000
 30
0.0
 11
14.200
 21
12.000
 31
0.0
  0
LINE
  8
A-KITCHEN
 10
0.200
 20
3.000
 30
0.0
 11
5.500
 21
3.000
 31
0.0
  0
LINE
  8
A-KITCHEN
 10
5.500
 20
3.000
 30
0.0
 11
5.500
 21
0.200
 31
0.0
  0
LINE
  8
A-FURN
 10
10.750
 20
8.800
 30
0.0
 11
12.550
 21
8.800
 31
0.0
  0
LINE
  8
A-FURN
 10
12.550
 20
8.800
 30
0.0
 11
12.550
 21
10.800
 31
0.0
  0
LINE
  8
A-FURN
 10
12.550
 20
10.800
 30
0.0
 11
10.750
 21
10.800
 31
0.0
  0
LINE
  8
A-FURN
 10
10.750
 20
10.800
 30
0.0
 11
10.750
 21
8.800
 31
0.0
  0
LINE
  8
A-FURN
 10
10.850
 20
4.700
 30
0.0
 11
12.450
 21
4.700
 31
0.0
  0
LINE
  8
A-FURN
 10
12.450
 20
4.700
 30
0.0
 11
12.450
 21
6.700
 31
0.0
  0
LINE
  8
A-FURN
 10
12.450
 20
6.700
 30
0.0
 11
10.850
 21
6.700
 31
0.0
  0
LINE
  8
A-FURN
 10
10.850
 20
6.700
 30
0.0
 11
10.850
 21
4.700
 31
0.0
  0
LINE
  8
A-FURN
 10
10.850
 20
1.000
 30
0.0
 11
12.450
 21
1.000
 31
0.0
  0
LINE
  8
A-FURN
 10
12.450
 20
1.000
 30
0.0
 11
12.450
 21
3.000
 31
0.0
  0
LINE
  8
A-FURN
 10
12.450
 20
3.000
 30
0.0
 11
10.850
 21
3.000
 31
0.0
  0
LINE
  8
A-FURN
 10
10.850
 20
3.000
 30
0.0
 11
10.850
 21
1.000
 31
0.0
  0
LINE
  8
A-FURN
 10
1.500
 20
9.000
 30
0.0
 11
5.000
 21
9.000
 31
0.0
  0
LINE
  8
A-FURN
 10
5.000
 20
9.000
 30
0.0
 11
5.000
 21
11.000
 31
0.0
  0
LINE
  8
A-FURN
 10
4.500
 20
9.500
 30
0.0
 11
4.500
 21
11.000
 31
0.0
  0
LINE
  8
A-FURN
 10
1.500
 20
9.500
 30
0.0
 11
4.500
 21
9.500
 31
0.0
  0
LINE
  8
A-FURN
 10
2.000
 20
4.800
 30
0.0
 11
4.000
 21
4.800
 31
0.0
  0
LINE
  8
A-FURN
 10
4.000
 20
4.800
 30
0.0
 11
4.000
 21
5.800
 31
0.0
  0
LINE
  8
A-FURN
 10
4.000
 20
5.800
 30
0.0
 11
2.000
 21
5.800
 31
0.0
  0
LINE
  8
A-FURN
 10
2.000
 20
5.800
 30
0.0
 11
2.000
 21
4.800
 31
0.0
  0
LINE
  8
A-FURN
 10
2.500
 20
-4.800
 30
0.0
 11
5.000
 21
-4.800
 31
0.0
  0
LINE
  8
A-FURN
 10
5.000
 20
-4.800
 30
0.0
 11
5.000
 21
-3.800
 31
0.0
  0
LINE
  8
A-FURN
 10
5.000
 20
-3.800
 30
0.0
 11
2.500
 21
-3.800
 31
0.0
  0
LINE
  8
A-FURN
 10
2.500
 20
-3.800
 30
0.0
 11
2.500
 21
-4.800
 31
0.0
  0
LINE
  8
A-WINDOW
 10
1.500
 20
12.000
 30
0.0
 11
4.500
 21
12.000
 31
0.0
  0
LINE
  8
A-WINDOW
 10
0.000
 20
4.500
 30
0.0
 11
0.000
 21
6.500
 31
0.0
  0
LINE
  8
A-WINDOW
 10
1.500
 20
0.000
 30
0.0
 11
4.000
 21
0.000
 31
0.0
  0
LINE
  8
A-WINDOW
 10
7.000
 20
12.000
 30
0.0
 11
9.000
 21
12.000
 31
0.0
  0
LINE
  8
A-WINDOW
 10
14.000
 20
4.500
 30
0.0
 11
14.000
 21
6.500
 31
0.0
  0
LINE
  8
A-WINDOW
 10
14.000
 20
1.000
 30
0.0
 11
14.000
 21
2.500
 31
0.0
  0
LINE
  8
A-WINDOW
 10
10.500
 20
12.000
 30
0.0
 11
12.000
 21
12.000
 31
0.0
  0
LINE
  8
A-DOOR
 10
0.000
 20
10.000
 30
0.0
 11
0.000
 21
11.500
 31
0.0
  0
LINE
  8
A-DOOR
 10
2.000
 20
0.000
 30
0.0
 11
5.000
 21
0.000
 31
0.0
  0
LINE
  8
A-DOOR
 10
6.500
 20
7.800
 30
0.0
 11
6.500
 21
8.600
 31
0.0
  0
LINE
  8
A-DOOR
 10
9.500
 20
9.800
 30
0.0
 11
9.500
 21
10.600
 31
0.0
  0
LINE
  8
A-DOOR
 10
9.500
 20
6.500
 30
0.0
 11
9.500
 21
7.300
 31
0.0
  0
LINE
  8
A-DOOR
 10
6.800
 20
5.000
 30
0.0
 11
7.600
 21
5.000
 31
0.0
  0
LINE
  8
A-DOOR
 10
9.500
 20
2.200
 30
0.0
 11
9.500
 21
3.000
 31
0.0
  0
LINE
  8
A-DOOR
 10
6.800
 20
2.000
 30
0.0
 11
7.600
 21
2.000
 31
0.0
  0
LINE
  8
A-DOOR
 10
6.500
 20
1.000
 30
0.0
 11
6.500
 21
1.800
 31
0.0
  0
LINE
  8
A-DOOR
 10
8.000
 20
1.000
 30
0.0
 11
8.000
 21
1.800
 31
0.0
  0
CIRCLE
  8
A-STILT
 10
0.000
 20
0.000
 30
0.0
 40
0.150
  0
LINE
  8
A-STILT
 10
-0.250
 20
0.000
 30
0.0
 11
0.250
 21
0.000
 31
0.0
  0
LINE
  8
A-STILT
 10
0.000
 20
-0.250
 30
0.0
 11
0.000
 21
0.250
 31
0.0
  0
CIRCLE
  8
A-STILT
 10
0.000
 20
3.500
 30
0.0
 40
0.150
  0
LINE
  8
A-STILT
 10
-0.250
 20
3.500
 30
0.0
 11
0.250
 21
3.500
 31
0.0
  0
LINE
  8
A-STILT
 10
0.000
 20
3.250
 30
0.0
 11
0.000
 21
3.750
 31
0.0
  0
CIRCLE
  8
A-STILT
 10
0.000
 20
7.500
 30
0.0
 40
0.150
  0
LINE
  8
A-STILT
 10
-0.250
 20
7.500
 30
0.0
 11
0.250
 21
7.500
 31
0.0
  0
LINE
  8
A-STILT
 10
0.000
 20
7.250
 30
0.0
 11
0.000
 21
7.750
 31
0.0
  0
CIRCLE
  8
A-STILT
 10
0.000
 20
12.000
 30
0.0
 40
0.150
  0
LINE
  8
A-STILT
 10
-0.250
 20
12.000
 30
0.0
 11
0.250
 21
12.000
 31
0.0
  0
LINE
  8
A-STILT
 10
0.000
 20
11.750
 30
0.0
 11
0.000
 21
12.250
 31
0.0
  0
CIRCLE
  8
A-STILT
 10
6.500
 20
0.000
 30
0.0
 40
0.150
  0
LINE
  8
A-STILT
 10
6.250
 20
0.000
 30
0.0
 11
6.750
 21
0.000
 31
0.0
  0
LINE
  8
A-STILT
 10
6.500
 20
-0.250
 30
0.0
 11
6.500
 21
0.250
 31
0.0
  0
CIRCLE
  8
A-STILT
 10
6.500
 20
3.500
 30
0.0
 40
0.150
  0
LINE
  8
A-STILT
 10
6.250
 20
3.500
 30
0.0
 11
6.750
 21
3.500
 31
0.0
  0
LINE
  8
A-STILT
 10
6.500
 20
3.250
 30
0.0
 11
6.500
 21
3.750
 31
0.0
  0
CIRCLE
  8
A-STILT
 10
6.500
 20
7.500
 30
0.0
 40
0.150
  0
LINE
  8
A-STILT
 10
6.250
 20
7.500
 30
0.0
 11
6.750
 21
7.500
 31
0.0
  0
LINE
  8
A-STILT
 10
6.500
 20
7.250
 30
0.0
 11
6.500
 21
7.750
 31
0.0
  0
CIRCLE
  8
A-STILT
 10
6.500
 20
12.000
 30
0.0
 40
0.150
  0
LINE
  8
A-STILT
 10
6.250
 20
12.000
 30
0.0
 11
6.750
 21
12.000
 31
0.0
  0
LINE
  8
A-STILT
 10
6.500
 20
11.750
 30
0.0
 11
6.500
 21
12.250
 31
0.0
  0
CIRCLE
  8
A-STILT
 10
9.500
 20
0.000
 30
0.0
 40
0.150
  0
LINE
  8
A-STILT
 10
9.250
 20
0.000
 30
0.0
 11
9.750
 21
0.000
 31
0.0
  0
LINE
  8
A-STILT
 10
9.500
 20
-0.250
 30
0.0
 11
9.500
 21
0.250
 31
0.0
  0
CIRCLE
  8
A-STILT
 10
9.500
 20
3.500
 30
0.0
 40
0.150
  0
LINE
  8
A-STILT
 10
9.250
 20
3.500
 30
0.0
 11
9.750
 21
3.500
 31
0.0
  0
LINE
  8
A-STILT
 10
9.500
 20
3.250
 30
0.0
 11
9.500
 21
3.750
 31
0.0
  0
CIRCLE
  8
A-STILT
 10
9.500
 20
7.500
 30
0.0
 40
0.150
  0
LINE
  8
A-STILT
 10
9.250
 20
7.500
 30
0.0
 11
9.750
 21
7.500
 31
0.0
  0
LINE
  8
A-STILT
 10
9.500
 20
7.250
 30
0.0
 11
9.500
 21
7.750
 31
0.0
  0
CIRCLE
  8
A-STILT
 10
9.500
 20
12.000
 30
0.0
 40
0.150
  0
LINE
  8
A-STILT
 10
9.250
 20
12.000
 30
0.0
 11
9.750
 21
12.000
 31
0.0
  0
LINE
  8
A-STILT
 10
9.500
 20
11.750
 30
0.0
 11
9.500
 21
12.250
 31
0.0
  0
CIRCLE
  8
A-STILT
 10
14.000
 20
0.000
 30
0.0
 40
0.150
  0
LINE
  8
A-STILT
 10
13.750
 20
0.000
 30
0.0
 11
14.250
 21
0.000
 31
0.0
  0
LINE
  8
A-STILT
 10
14.000
 20
-0.250
 30
0.0
 11
14.000
 21
0.250
 31
0.0
  0
CIRCLE
  8
A-STILT
 10
14.000
 20
3.500
 30
0.0
 40
0.150
  0
LINE
  8
A-STILT
 10
13.750
 20
3.500
 30
0.0
 11
14.250
 21
3.500
 31
0.0
  0
LINE
  8
A-STILT
 10
14.000
 20
3.250
 30
0.0
 11
14.000
 21
3.750
 31
0.0
  0
CIRCLE
  8
A-STILT
 10
14.000
 20
7.500
 30
0.0
 40
0.150
  0
LINE
  8
A-STILT
 10
13.750
 20
7.500
 30
0.0
 11
14.250
 21
7.500
 31
0.0
  0
LINE
  8
A-STILT
 10
14.000
 20
7.250
 30
0.0
 11
14.000
 21
7.750
 31
0.0
  0
CIRCLE
  8
A-STILT
 10
14.000
 20
12.000
 30
0.0
 40
0.150
  0
LINE
  8
A-STILT
 10
13.750
 20
12.000
 30
0.0
 11
14.250
 21
12.000
 31
0.0
  0
LINE
  8
A-STILT
 10
14.000
 20
11.750
 30
0.0
 11
14.000
 21
12.250
 31
0.0
  0
CIRCLE
  8
A-STILT
 10
0.000
 20
-3.000
 30
0.0
 40
0.150
  0
LINE
  8
A-STILT
 10
-0.250
 20
-3.000
 30
0.0
 11
0.250
 21
-3.000
 31
0.0
  0
LINE
  8
A-STILT
 10
0.000
 20
-3.250
 30
0.0
 11
0.000
 21
-2.750
 31
0.0
  0
CIRCLE
  8
A-STILT
 10
6.500
 20
-3.000
 30
0.0
 40
0.150
  0
LINE
  8
A-STILT
 10
6.250
 20
-3.000
 30
0.0
 11
6.750
 21
-3.000
 31
0.0
  0
LINE
  8
A-STILT
 10
6.500
 20
-3.250
 30
0.0
 11
6.500
 21
-2.750
 31
0.0
  0
CIRCLE
  8
A-STILT
 10
14.000
 20
-3.000
 30
0.0
 40
0.150
  0
LINE
  8
A-STILT
 10
13.750
 20
-3.000
 30
0.0
 11
14.250
 21
-3.000
 31
0.0
  0
LINE
  8
A-STILT
 10
14.000
 20
-3.250
 30
0.0
 11
14.000
 21
-2.750
 31
0.0
  0
CIRCLE
  8
A-STILT
 10
0.000
 20
-5.500
 30
0.0
 40
0.150
  0
LINE
  8
A-STILT
 10
-0.250
 20
-5.500
 30
0.0
 11
0.250
 21
-5.500
 31
0.0
  0
LINE
  8
A-STILT
 10
0.000
 20
-5.750
 30
0.0
 11
0.000
 21
-5.250
 31
0.0
  0
CIRCLE
  8
A-STILT
 10
8.000
 20
-5.500
 30
0.0
 40
0.150
  0
LINE
  8
A-STILT
 10
7.750
 20
-5.500
 30
0.0
 11
8.250
 21
-5.500
 31
0.0
  0
LINE
  8
A-STILT
 10
8.000
 20
-5.750
 30
0.0
 11
8.000
 21
-5.250
 31
0.0
  0
CIRCLE
  8
A-STILT
 10
14.000
 20
-5.500
 30
0.0
 40
0.150
  0
LINE
  8
A-STILT
 10
13.750
 20
-5.500
 30
0.0
 11
14.250
 21
-5.500
 31
0.0
  0
LINE
  8
A-STILT
 10
14.000
 20
-5.750
 30
0.0
 11
14.000
 21
-5.250
 31
0.0
  0
TEXT
  8
A-TEXT
 10
0.500
 20
10.500
 30
0.0
 40
0.250
  1
ENTRY FOYER
 50
0.0
  0
TEXT
  8
A-TEXT
 10
0.500
 20
10.150
 30
0.0
 40
0.180
  1
110 sq.ft (10.2 sq.m)
 50
0.0
  0
TEXT
  8
A-TEXT
 10
2.800
 20
8.500
 30
0.0
 40
0.250
  1
FAMILY LIVING LOUNGE
 50
0.0
  0
TEXT
  8
A-TEXT
 10
2.800
 20
8.150
 30
0.0
 40
0.180
  1
320 sq.ft (29.7 sq.m)
 50
0.0
  0
TEXT
  8
A-TEXT
 10
1.500
 20
5.000
 30
0.0
 40
0.250
  1
DINING & SOCIAL ZONE
 50
0.0
  0
TEXT
  8
A-TEXT
 10
1.500
 20
4.650
 30
0.0
 40
0.180
  1
170 sq.ft (15.8 sq.m)
 50
0.0
  0
TEXT
  8
A-TEXT
 10
2.000
 20
1.800
 30
0.0
 40
0.250
  1
OPEN CHEF KITCHEN
 50
0.0
  0
TEXT
  8
A-TEXT
 10
2.000
 20
1.450
 30
0.0
 40
0.180
  1
140 sq.ft (13.0 sq.m)
 50
0.0
  0
TEXT
  8
A-TEXT
 10
10.000
 20
8.500
 30
0.0
 40
0.250
  1
MASTER BEDROOM
 50
0.0
  0
TEXT
  8
A-TEXT
 10
10.000
 20
8.150
 30
0.0
 40
0.180
  1
220 sq.ft (20.4 sq.m)
 50
0.0
  0
TEXT
  8
A-TEXT
 10
8.000
 20
10.650
 30
0.0
 40
0.250
  1
MASTER BATH
 50
0.0
  0
TEXT
  8
A-TEXT
 10
8.000
 20
10.300
 30
0.0
 40
0.180
  1
80 sq.ft (7.4 sq.m)
 50
0.0
  0
TEXT
  8
A-TEXT
 10
8.000
 20
8.500
 30
0.0
 40
0.250
  1
MASTER CLOSET
 50
0.0
  0
TEXT
  8
A-TEXT
 10
8.000
 20
8.150
 30
0.0
 40
0.180
  1
60 sq.ft (5.6 sq.m)
 50
0.0
  0
TEXT
  8
A-TEXT
 10
10.000
 20
4.200
 30
0.0
 40
0.250
  1
BEDROOM 2 (GUEST)
 50
0.0
  0
TEXT
  8
A-TEXT
 10
10.000
 20
3.850
 30
0.0
 40
0.180
  1
190 sq.ft (17.7 sq.m)
 50
0.0
  0
TEXT
  8
A-TEXT
 10
8.000
 20
6.250
 30
0.0
 40
0.250
  1
GUEST BATH
 50
0.0
  0
TEXT
  8
A-TEXT
 10
8.000
 20
5.900
 30
0.0
 40
0.180
  1
80 sq.ft (7.4 sq.m)
 50
0.0
  0
TEXT
  8
A-TEXT
 10
10.000
 20
3.000
 30
0.0
 40
0.250
  1
BEDROOM 3
 50
0.0
  0
TEXT
  8
A-TEXT
 10
10.000
 20
2.650
 30
0.0
 40
0.180
  1
165 sq.ft (15.3 sq.m)
 50
0.0
  0
TEXT
  8
A-TEXT
 10
8.000
 20
3.500
 30
0.0
 40
0.250
  1
CHILDREN BATH
 50
0.0
  0
TEXT
  8
A-TEXT
 10
8.000
 20
3.150
 30
0.0
 40
0.180
  1
95 sq.ft (8.8 sq.m)
 50
0.0
  0
TEXT
  8
A-TEXT
 10
6.700
 20
1.400
 30
0.0
 40
0.250
  1
POWDER TOILET
 50
0.0
  0
TEXT
  8
A-TEXT
 10
6.700
 20
1.050
 30
0.0
 40
0.180
  1
30 sq.ft (2.8 sq.m)
 50
0.0
  0
TEXT
  8
A-TEXT
 10
8.150
 20
0.650
 30
0.0
 40
0.250
  1
SOLAR & UTILITY
 50
0.0
  0
TEXT
  8
A-TEXT
 10
8.150
 20
0.300
 30
0.0
 40
0.180
  1
30 sq.ft (2.8 sq.m)
 50
0.0
  0
TEXT
  8
A-TEXT
 10
7.000
 20
-1.500
 30
0.0
 40
0.250
  1
COVERED FOREST DECK
 50
0.0
  0
TEXT
  8
A-TEXT
 10
7.000
 20
-1.850
 30
0.0
 40
0.180
  1
380 sq.ft (35.3 sq.m)
 50
0.0
  0
TEXT
  8
A-TEXT
 10
11.000
 20
-4.250
 30
0.0
 40
0.250
  1
STILTED PLUNGE POOL
 50
0.0
  0
TEXT
  8
A-TEXT
 10
11.000
 20
-4.600
 30
0.0
 40
0.180
  1
160 sq.ft (14.9 sq.m)
 50
0.0
  0
TEXT
  8
A-TEXT
 10
4.000
 20
-4.250
 30
0.0
 40
0.250
  1
OUTDOOR DINING
 50
0.0
  0
TEXT
  8
A-TEXT
 10
4.000
 20
-4.600
 30
0.0
 40
0.180
  1
215 sq.ft (20.0 sq.m)
 50
0.0
  0
LINE
  8
A-DIMS
 10
0.000
 20
13.200
 30
0.0
 11
14.000
 21
13.200
 31
0.0
  0
CIRCLE
  8
A-DIMS
 10
0.000
 20
13.200
 30
0.0
 40
0.050
  0
CIRCLE
  8
A-DIMS
 10
14.000
 20
13.200
 30
0.0
 40
0.050
  0
TEXT
  8
A-DIMS
 10
7.000
 20
13.450
 30
0.0
 40
0.200
  1
14.00m (45' 11") OVERALL WIDTH
 50
0.0
  0
LINE
  8
A-DIMS
 10
0.000
 20
12.600
 30
0.0
 11
6.500
 21
12.600
 31
0.0
  0
CIRCLE
  8
A-DIMS
 10
0.000
 20
12.600
 30
0.0
 40
0.050
  0
CIRCLE
  8
A-DIMS
 10
6.500
 20
12.600
 30
0.0
 40
0.050
  0
TEXT
  8
A-DIMS
 10
3.250
 20
12.850
 30
0.0
 40
0.200
  1
6.50m (21' 4") SOCIAL WING
 50
0.0
  0
LINE
  8
A-DIMS
 10
6.500
 20
12.600
 30
0.0
 11
14.000
 21
12.600
 31
0.0
  0
CIRCLE
  8
A-DIMS
 10
6.500
 20
12.600
 30
0.0
 40
0.050
  0
CIRCLE
  8
A-DIMS
 10
14.000
 20
12.600
 30
0.0
 40
0.050
  0
TEXT
  8
A-DIMS
 10
10.250
 20
12.850
 30
0.0
 40
0.200
  1
7.50m (24' 7") PRIVATE WING
 50
0.0
  0
LINE
  8
A-DIMS
 10
-1.500
 20
-5.500
 30
0.0
 11
-1.500
 21
12.000
 31
0.0
  0
CIRCLE
  8
A-DIMS
 10
-1.500
 20
-5.500
 30
0.0
 40
0.050
  0
CIRCLE
  8
A-DIMS
 10
-1.500
 20
12.000
 30
0.0
 40
0.050
  0
TEXT
  8
A-DIMS
 10
-1.800
 20
3.250
 30
0.0
 40
0.200
  1
17.50m (57' 5") OVERALL LENGTH
 50
90.0
  0
LINE
  8
A-DIMS
 10
0.000
 20
-6.500
 30
0.0
 11
8.000
 21
-6.500
 31
0.0
  0
CIRCLE
  8
A-DIMS
 10
0.000
 20
-6.500
 30
0.0
 40
0.050
  0
CIRCLE
  8
A-DIMS
 10
8.000
 20
-6.500
 30
0.0
 40
0.050
  0
TEXT
  8
A-DIMS
 10
4.000
 20
-6.250
 30
0.0
 40
0.200
  1
8.00m (26' 3") DINING DECK
 50
0.0
  0
LINE
  8
A-DIMS
 10
8.000
 20
-6.500
 30
0.0
 11
14.000
 21
-6.500
 31
0.0
  0
CIRCLE
  8
A-DIMS
 10
8.000
 20
-6.500
 30
0.0
 40
0.050
  0
CIRCLE
  8
A-DIMS
 10
14.000
 20
-6.500
 30
0.0
 40
0.050
  0
TEXT
  8
A-DIMS
 10
11.000
 20
-6.250
 30
0.0
 40
0.200
  1
6.00m (19' 8") PLUNGE POOL
 50
0.0
  0
TEXT
  8
A-DISCLAIMER
 10
1.000
 20
-6.800
 30
0.0
 40
0.160
  1
TECHNICAL COVENANT NOTICE:
 50
0.0
  0
TEXT
  8
A-DISCLAIMER
 10
1.000
 20
-7.050
 30
0.0
 40
0.160
  1
ALL DIMENSIONS AND COORDINATES SHOWN ARE CONCEPTUAL ONLY AND INDICATIVE OF PROPOSED PROGRAM.
 50
0.0
  0
TEXT
  8
A-DISCLAIMER
 10
1.000
 20
-7.300
 30
0.0
 40
0.160
  1
THIS IS NOT AN EXECUTION DRAWING AND IS STRICTLY NOT FOR SITE CONSTRUCTION WORK.
 50
0.0
  0
TEXT
  8
A-DISCLAIMER
 10
1.000
 20
-7.550
 30
0.0
 40
0.160
  1
FINAL DIMENSIONS ARE SUBJECT TO ACTUAL LICENSED LAND SURVEYS, STRUCTURAL Borehole CHECKS,
 50
0.0
  0
TEXT
  8
A-DISCLAIMER
 10
1.000
 20
-7.800
 30
0.0
 40
0.160
  1
AND LOCAL ENVIRONMENT BUFFER / TCP / RERA AUTHORITY STAMPS.
 50
0.0
  0
CIRCLE
  8
A-NORTH
 10
-3.000
 20
10.000
 30
0.0
 40
0.400
  0
LINE
  8
A-NORTH
 10
-3.000
 20
9.600
 30
0.0
 11
-3.000
 21
10.500
 31
0.0
  0
LINE
  8
A-NORTH
 10
-3.000
 20
10.500
 30
0.0
 11
-3.200
 21
10.100
 31
0.0
  0
LINE
  8
A-NORTH
 10
-3.000
 20
10.500
 30
0.0
 11
-2.800
 21
10.100
 31
0.0
  0
TEXT
  8
A-NORTH
 10
-3.000
 20
10.700
 30
0.0
 40
0.240
  1
N
 50
0.0
  0
LINE
  8
A-TEXT
 10
15.000
 20
-5.500
 30
0.0
 11
20.000
 21
-5.500
 31
0.0
  0
LINE
  8
A-TEXT
 10
20.000
 20
-5.500
 30
0.0
 11
20.000
 21
-1.500
 31
0.0
  0
LINE
  8
A-TEXT
 10
20.000
 20
-1.500
 30
0.0
 11
15.000
 21
-1.500
 31
0.0
  0
LINE
  8
A-TEXT
 10
15.000
 20
-1.500
 30
0.0
 11
15.000
 21
-5.500
 31
0.0
  0
LINE
  8
A-TEXT
 10
15.000
 20
-2.100
 30
0.0
 11
20.000
 21
-2.100
 31
0.0
  0
TEXT
  8
A-TEXT
 10
15.300
 20
-1.950
 30
0.0
 40
0.260
  1
RESERVA VERDE GOA
 50
0.0
  0
TEXT
  8
A-TEXT
 10
15.300
 20
-2.500
 30
0.0
 40
0.180
  1
Model: 3BHK Forest Estate
 50
0.0
  0
TEXT
  8
A-TEXT
 10
15.300
 20
-2.800
 30
0.0
 40
0.160
  1
Drawing: Architectural Plan
 50
0.0
  0
TEXT
  8
A-TEXT
 10
15.300
 20
-3.100
 30
0.0
 40
0.150
  1
ID: RV-ARCH-3BHK-01
 50
0.0
  0
TEXT
  8
A-TEXT
 10
15.300
 20
-3.400
 30
0.0
 40
0.140
  1
Scale: Indicative / 1:100 @ A3
 50
0.0
  0
TEXT
  8
A-TEXT
 10
15.300
 20
-3.700
 30
0.0
 40
0.140
  1
Revision: R1
 50
0.0
  0
TEXT
  8
A-TEXT
 10
15.300
 20
-4.000
 30
0.0
 40
0.140
  1
Date: May 30, 2026
 50
0.0
  0
TEXT
  8
A-TEXT
 10
15.300
 20
-4.300
 30
0.0
 40
0.140
  1
Status: HNI + Architect Review
 50
0.0
  0
TEXT
  8
A-TEXT
 10
15.300
 20
-4.700
 30
0.0
 40
0.120
  1
ALL DIMENSIONS IN METERS
 50
0.0
  0
ENDSEC
  0
EOF
